/* XPM */
static char *exit_2[] = {
/* columns rows colors chars-per-pixel */
"80 80 95 2 ",
"   c black",
".  c gray1",
"X  c gray2",
"o  c gray3",
"O  c gray4",
"+  c #0E0E0E",
"@  c #111111",
"#  c #131313",
"$  c #151515",
"%  c #191919",
"&  c gray11",
"*  c gray12",
"=  c #222222",
"-  c #252525",
";  c gray15",
":  c #272727",
">  c #282828",
",  c gray17",
"<  c #2C2C2C",
"1  c #2D2D2D",
"2  c #2F2F2F",
"3  c #313131",
"4  c gray20",
"5  c gray21",
"6  c #373737",
"7  c gray22",
"8  c #3A3A3A",
"9  c gray23",
"0  c #3C3C3C",
"q  c gray24",
"w  c #3E3E3E",
"e  c gray25",
"r  c #434343",
"t  c gray27",
"y  c #484848",
"u  c #4B4B4B",
"i  c #4C4C4C",
"p  c #515151",
"a  c gray34",
"s  c #585858",
"d  c gray35",
"f  c #5D5D5D",
"g  c #5F5F5F",
"h  c #606060",
"j  c gray39",
"k  c #656565",
"l  c #676767",
"z  c DimGray",
"x  c gray42",
"c  c #6F6F6F",
"v  c gray44",
"b  c #727272",
"n  c gray45",
"m  c gray47",
"M  c #7C7C7C",
"N  c gray50",
"B  c #98B50C",
"V  c #98B60C",
"C  c #9BB60C",
"Z  c #9AB80D",
"A  c #99BA0E",
"S  c #9BBC0E",
"D  c #9DBD0E",
"F  c #A2BE0E",
"G  c #9FC20F",
"H  c #9FC310",
"J  c #A2C20F",
"K  c #A5C00C",
"L  c #A5C20D",
"P  c #A1C40F",
"I  c #A5C40F",
"U  c #A8C20E",
"Y  c #A7C80F",
"T  c #A0C310",
"R  c #A2C410",
"E  c #A4C610",
"W  c #A5C711",
"Q  c #A9C710",
"!  c #A6C811",
"~  c #A7C911",
"^  c #A8C911",
"/  c #A8CA11",
"(  c #ADC910",
")  c #AFCE12",
"_  c #B1CD11",
"`  c #B3CF12",
"'  c #808080",
"]  c #838383",
"[  c #868686",
"{  c #888888",
"}  c gray55",
"|  c gray56",
" . c #909090",
".. c #9A9A9A",
"X. c #9B9B9B",
/* pixels */
"! ! ! ! ! ! ! ! ! ! ! ! ! ! ! ! ! ! ! ! ! ! ! ! ! ! ! ! ! ! ! ! ! ! ! ! ! ! ! ! ! ! ! ! ! ! ! ! ! ! ! ! ! ! ! ! ! ! ! ! ! ! ! ! ! ! ! ! ! ! ! ! ! ! ! ! ! ! ! ! ",
"! ! ! ! ! ! ! ! ! ! ! ! ! ! ! ! ! ! ! ! ! ! ! ! ! ! ! ! ! ! ! ! ! ! ! ! ! ! ! ! ! ! ! ! ! ! ! ! ! ! ! ! ! ! ! ! ! ! ! ! ! ! ! ! ! ! ! ! ! ! ! ! ! ! ! ! ! ! ! ! ",
"! ! ! ! ! ! ! ! ! ! ! ! ! ! ! ! ! ! ! ! ! ! ! ! ! ! ! ! ! ! ! ! ! ! ! ! ! ! ! ! ! ! ! ! ! ! ! ! ! ! ! ! ! ! ! ! ! ! ! ! ! ! ! ! ! ! ! ! ! ! ! ! ! ! ! ! ! ! ! ! ",
"! ! ! ! ! ! ! ! ! ! ! ! ! ! ! ! ! ! ! ! ! ! ! ! ! ! ! ! ! ! ! ! ! ! ! ! ! ! ! ! ! ! ! ! ! ! ! ! ! ! ! ! ! ! ! ! ! ! ! ! ! ! ! ! ! ! ! ! ! ! ! ! ! ! ! ! ! ! ! ! ",
"! ! ! ! ! ! ! ! ! ! ! ! ! ! ! ! ! ! ! ! ! ! ! ! ! ! ! ! ! ! ! ! ! ! ! ! ! ! ! ! ! ! ! ! ! ! ! ! ! ! ! ! ! ! ! ! ! ! ! ! ! ! ! ! ! ! ! ! ! ! ! ! ! ! ! ! ! ! ! ! ",
"! !                                                     ! ! ! ! ! ! ! ! ! ! ! ! ! ! ! ! ! ! ! ! ! ! ! ! ! ! ! ! ! ! ! ! ! ! ! ! ! ! ! ! ! ! ! ! ! ! ! ! ! ! ! ! ",
"! !                                                     ! ! ! ! ! ! ! ! ! ! ! ! ! ! ! ! ! ! ! ! ! ! ! ! ! ! ! ! ! ! ! ! ! ! ! ! ! ! ! ! ! ! ! ! ! ! ! ! ! ! ! ! ",
"! !                                                     ! ! ! ! ! ! ! ! ! ! ! ! ! ! ! ! ! ! ! ! ! ! ! ! ! ! ! ! ! ! ! ! ! ! ! ! ! ! ! ! ! ! ! ! ! ! ! ! ! ! ! ! ",
"! !     *  .} { ' [ } [ ' { } ' ' } } ' ' } } '  .%     ! ! ! ! ! ! ! ! ! ! ! ! ! ! ! ! ! ! ! ! ! ! ! ! ! ! ! ! ! ! ! ! ! ! ! ! ! ! ! ! ! ! ! ! ! ! ! ! ! ! ! ! ",
"! !     w ! ! ! ! H H H T H R ! ! ! ! ! ! ! W H H 1     ! ! ! ! ! ! ! ! ! ! ! ! ! ! ! ! ! ! ! ! ! ! ! ! ! ! ! ! ! ! ! ! ! ! ! ! ! ! ! ! ! ! ! ! ! ! ! ! ! ! ! ! ",
"! !     w W ! ! ! ! ! ! ! ! ! W ! ! ! ! ! ! ! ! ! -     ! ! ! ! ! ! ! ! ! ! ! ! ! ! ! ! ! ! ! ! ! ! ! ! ! ! ! ! ! ! ! ! ! ! ! ! ! ! ! ! ! ! ! ! ! ! ! ! ! ! ! ! ",
"! !     w W ! ! ! ! ! ! ! ! ! ! ! ! ! ! ! ! ! ! ! :     ! ! ! ! ! ! ! ! ! ! ! ! ! ! ! ! ! ! ! ! ! ! ! ! ! ! ! ! ! ! ! ! ! ! ! ! ! ! ! ! ! ! ! ! ! ! ! ! ! ! ! ! ",
"! !     8 W W W ! ! ! ! ! ! ! ! ! ! ! ! ! ! ! ! R <     ! ! ! ! ! ! ! ! ! ! ! ! ! ! ! ! ! ! ! ! ! ! ! ! ! ! ! ! ! ! ! ! ! ! ! ! ! ! ! !           > ! ! ! ! ! ! ",
"! !     8 W W ! ! ! ! ! ! ! ! ! ! ! ! ! ! ! ! ! H 1     ! ! ! ! ! ! ! ! ! ! ! ! ! ! ! ! ! ! ! ! ! ! ! ! ! ! ! ! ! ! ! ! ! ! ! ! ! ! 1                 ! ! ! ! ! ",
"! !     8 W ! ! ! ! ! ! ! ! ! ! ! ! ! ! ! ! ! ! R >     ! ! ! ! ! ! ! ! ! ! ! ! ! ! ! ! ! ! ! ! ! ! ! ! ! ! ! ! ! ! ! ! ! ! ! ! ! p           !         ! ! ! ! ",
"! !     w H ! ! ! ! ! ! ! ! ! ! ! ! ! ! ! ! ! ! H -     ! ! ! ! ! ! ! ! ! ! ! ! ! ! ! ! ! ! ! ! ! ! ! ! ! ! ! ! ! ! ! ! ! ! ! ! !       O ! ! ! ! !     ! ! ! ! ",
"! !     w W W W ! ! ! ! ! ! ! ! ! ! ! ! ! ! ! ! H -     ! ! ! ! ! ! ! ! ! ! ! ! ! ! ! ! ! ! ! ! ! ! ! ! ! ! ! ! ! ! ! ! ! ! ! ! -     % ! ! ! ! ! !       ! ! ! ",
"! !     8 W ! ! ! ! ! ! ! ! ! ! ! ! ! ! ! ! ! ! H <     D ! ! ! ! ! ! ! ! ! ! ! ! ! ! ! ! ! ! ! ! ! ! ! ! ! ! ! ! ! ! ! ! ! ! !       ^ ! ! ! ! ! ! !     ! ! ! ",
"! !     7 W ! ! ! ! ! ! ! ! ! ! ! ! ! ! ! ! ! ! H <     R ! ! ! ! ! ! ! ! ! ! ! ! ! ! ! ! ! ! ! ! ! ! ! ! ! ! ! ! ! ! ! ! ! ! !     ! ! ! ! ! ! ! ! !     + ! ! ",
"! !     9 W ! ! ! ! ! ! ! ! ! ! ! ! ! ! ! ! ! ! R >     H ! ! ! ! ! ! ! ! ! ! ! ! ! ! ! ! ! ! ! ! ! ! ! ! ! ! ! ! ! ! ! ! ! ! !     ! ! ! ! ! ! ! ! ! +     ! ! ",
"! !     w ! ! ! ! ! ! ! ! ! ! ! ! ! ! ! ! ! ! ! ! -     H ! ! ! ! ! ! ! ! ! ! ! ! ! ! ! ! ! ! ! ! ! ! ! ! ! ! ! ! ! ! ! ! ! ! !     ! ! ! ! ! ! ! ! ! !     ! ! ",
"! !     9 ^ ! ! ! ! ! ! ! ! ! ! ! ! ! ! ! ! ! ! ! :     ! ! ! ! ! ! ! ! ! ! ! ! ! ! ! ! ! ! ! ! ! ! ! ! ! ! ! ! ! ! ! ! ! ! ! !     ! ! ! ! ! ! ! ! ! !     ! ! ",
"! !     7 K ! ! ! ! ! ! ! ! ! ! ! ! ! ! ! ! ! ! ! 1     ! ! ! ! ! ! ! ! ! ! ! ! ! ! ! ! ! ! ! ! ! ! ! ! ! ! ! ! ! ! W ! ! W ! !     ! ! ! ! ! ! ! ! ! X     ! ! ",
"! !     7 V ! ! ! ! ! ! ! ! ! ! ! ! ! ! ! ! ! ! ! 1     ! ! ! ! ! ! ! ! ! ! ! ! ! ! ! ! ! z &           * W ! ! ! ! W H H H R !     ! ! ! ! ! ! ! ! !     $ ! ! ",
"! !     0 J ! ! ! ! ! ! ! ! ! ! ! ! ! ! ! ! ! ! ! -     ! ! ! ! ! ! ! ! ! ! ! ! ! !                                     # 5 g !       ! ! ! ! ! ! ! !     ! ! ! ",
"! !     w P ! ! ! ! ! ! ! ! ! ! ! ! ! ! ! ! ! ! ! -     ! ! ! ! ! ! ! ! ! ! !                                                         ! ! ! ! ! ! !       ! ! ! ",
"! !     0 ! ! ! ! ! ! ! ! ! ! ! ! ! ! ! ! ! ! ! ! >     ! ! ! ! ! ! ! ! ! !                 $ f ! ! c i >                               ! ! ! ! !       ! ! ! ! ",
"! !     7 ! ! ! ! ! ! ! ! ! ! ! ! ! ! ! ! ! ! ! ! 1     ! ! ! ! ! ! ! ! !           5 m ! ! ! R T ! W W H W ! ! ! ! ! s 3 O                             ! ! ! ! ",
"! !     8 I ! ! ! ! ! ! ! ! ! ! ! ! ! ! ! ! ! ! ! 1     ! ! ! ! ! ! ! ! !       ! ! ! ! ! ! ! ! ! W ! ! ! ! ! ! ! ! ! ! ! ! T B -                     ! ! ! ! ! ",
"! !     w ! ! ! ! ! ! ! ! ! ! ! ! ! ! ! ! ! ! ! ! -     ! ! ! ! ! ! ! ! !     ' ! ! ! ! ! ! ! ! $ 5 b ! ! ! ! ! ! ! ! ! ! ! ! ! !     ! %         ! ! ! ! ! ! ! ",
"! !     w W ! ! ! ! ! ! ! ! ! ! ! ! ! ! ! ! ! Y ! :     ! ! ! ! ! ! ! ! !     3 H W ! b &                   $ u ! ! ! ! ! ! ! ! !     ! W ! ! ! ! ! ! ! ! ! ! ! ",
"! !     8 W ! ! ! ! ! ! ! ! ! ! ! ! ! ! ! ! ! ! ! >     ! ! ! ! ! ! ! ! !       +                                   ! ! ! ! ! H 8     ! ! ! ! ! ! ! ! ! ! ! ! ! ",
"! !     7 ! ! ! ! ! ! ! ! ! ! ! ! ! ! ! ! ! ! ! ! 1     ! ! ! ! ! ! ! ! F s                     %                   W ! ! ! ! !       ! ! ! ! ! ! ! ! ! ! ! ! ! ",
"! !     7 ! ! ! ! ! ! ! ! ! ! ! ! ! ! ! ! ! ! ! ! 1     ! ! ! ! ! ! ! ! ) ! !         ! + h ! ! ! T ! ! ! s         ^ W ! ! ! l     ! ! ! ! ! ! ! ! ! ! ! ! ! ! ",
"! !     w W ! ! ! ! ! ! ! ! ! ! ! ! ! ! ! ! ! ! ! :     ! ! ! ! ! ! ! ! ! ! ! ! ! ! ! ! W ! ! ! ! ! ! ! ! -       W T W ! ! ! X     ! ! ! ! ! ! ! ! ! ! ! ! ! ! ",
"! !     w ! ! ! ! ! ! ! ! ! ! ! ! ! ! ! ! ! ! ! ! -     ! ! ! !     ! ! ! ! ! ! ! ! ! ! ! ! ! ! ! ! ! T 3       m S T W ! W W O     ! ! ! ! ! ! ! ! ! ! ! ! ! ! ",
"! !     8 W W ! ! ! ! ! ! ! ! ! ! ! ! ! ! ! ! ! ! >     ! ! ! !     ! ! ! ! ! ! ! ! ! ! ! ! ! ! ! ! W f       a ! ! ! ! ! ! R -     ! ! ! ! ! ! ! ! ! ! ! ! ! ! ",
"! !     8 W ! ! ! ! ! ! ! ! ! ! ! ! ! ! ! ! ! ! ! 1     ! ! ! !       ! ! ! ! ! ! ! ! ! ! ! ! ! ! ! [       > W ! ! ! ! ! ! ! !     ! ! ! ! ! ! ! ! ! ! ! ! ! ! ",
"! !     8 W ! ! ! ! ! ! ! ! ! ! ! ! ! ! ! ! ! ! W 1     ! ! ! ! !       ! ! ! ! ! ! ! ! ! ! ! ! ! !       + ^ ! ! ! !       ! !     ! ! ! ! ! ! ! ! ! ! ! ! ! ! ",
"! !     w ! ! ! ! ! ! ! ! ! ! ! ! ! ! ! ! ! ! ! ! :     ! ! ! ! ! !       ! ! ! ! ! ! ! ! ! ! ! !         D R ! ! ! !       ! !     ! ! ! ! ! ! ! ! ! ! ! ! ! ! ",
"! !     w W ! ! ! ! ! ! ! ! ! ! ! ! ! ! ! ! ! ! W -     ! ! ! ! ! ! !       ! ! ! ! ! ! ! ! ! !       W ! ! ! ! ! ! !       ! !     ! ! ! ! ! ! ! ! ! ! ! ! ! ! ",
"! !     8 W ! ! ! ! ! ! ! ! ! ! ! ! ! ! ! ! ! ! H 1     ! ! ! ! ! ! !         R ! ! ! ! ! ! ! !       W ! ! ! ! !           ! !     @ ! ! ! ! ! ! ! ! ! ! ! ! ! ",
"! !     7 W ! ! ! ! ! ! ! ! ! ! ! ! ! ! ! ! ! ! ! 1     ! ! ! ! ! ! ! !       = S ^ ! ! ! ! >       ! H ! ! ! !             ! !         ! ! ! ! ! ! ! ! ! ! ! ! ",
"! !     8 G ! ! ! ! ! ! ! ! ! ! ! ! !                                           m ) ! ! ! !       m T ! ! ! !       & !     ! ! %         ! ! ! ! ! ! ! ! ! ! ! ",
"! !     w I ! ! ! ! ! ! ! ! ! ! ! ! !                                           o ^ _ ! ! b     y ! ! ! ! R X       T !     ! ! ! !           ! ! ! ! ! ! ! ! ! ",
"! !     w I ! ! ! ! ! ! ! ! ! ! ! ! !                                           r W ! ! W e     ! ! ! ! ! s       ! ! !     ! ! ! ! !           ! ! ! ! ! ! ! ! ",
"! !     8 P ! ! ! ! ! ! ! ! ! ! ! ! ! ! ! ! ! ! ! %     ! ! ! ! ! ! ! !         T W ! ! W       ^ ! ! ! ! =     & ! ! !       & ! ! ! ! 5         ! ! ! ! ! ! ! ",
"! !     6 ! ! ! ! ! ! ! ! ! ! ! ! ! ! ! ! ! ! ! ! 3     ! ! ! ! ! ! ! -       ! ! ! ! ! n     t H ! ! ! R ..      ! ! ^           & ! ! ! !       ! ! ! ! ! ! ! ",
"! !     9 ! ! ! ! ! ! ! ! ! ! ! ! ! ! ! ! ! ! ! ! >     ! ! ! ! ! ! !       ! ! ! ! ! R       ! W ! ! ! ! ! i       ! ! !             = W W !     ! ! ! ! ! ! ! ",
"! !     w ! ! ! ! ! ! ! ! ! ! ! ! ! ! ! ! ! ! ! ! :     ! ! ! ! ! !       s ! ! ! ! ! !     % ! ! ! ! ! ! ! ! $       ! ! H z             ! >     ! ! ! ! ! ! ! ",
"! !     w ! ! ! ! ! ! ! ! ! ! ! ! ! ! ! ! ! ! ! ! -     ! ! ! ! !       $ S ! ! ! ! !       ! ! ! !     W ! ! !         ! ! D ! h                 ! ! ! ! ! ! ! ",
"! !     6 ! ! ! ! ! ! ! ! ! ! ! ! ! ! ! ! ! ! ! ! 1     ! ! ! !         W W ! ! ! ! ^       ! ! !       O ! ! ! !       & ! ! Q ! ! g           ! ! ! ! ! ! ! ! ",
"! !     8 ( ! ! ! ! ! ! ! ! ! ! ! ! ! ! ! ! ! ! R 1     ! ! ! !       ! ! ! ! ! ! !       ! ! ! {         $ ! ! ! !       a ! ! ! ! H L !     ! ! ! ! ! ! ! ! ! ",
"! !     w ! ! ! ! ! ! ! ! ! ! ! ! ! ! ! ! ! ! ! ! >     ! ! ! !     ! ! ! ! ! ! ! !       ! ! !             2 ^ ! ^ s       ..D W W W ! ! ! ! ! ! ! ! ! ! ! ! ! ",
"! !     w ! ! ! ! ! ! ! ! ! ! ! ! ! ! ! ! ! ! ! ! -     ! ! ! !   a H W ! ! ! ! !       ! P I a     & g       t S B H %       ! ! H ! ! ! ! ! ! ! ! ! ! ! ! ! ! ",
"! !     8 ! ! ! ! ! ! ! ! ! ! ! ! ! ! ! ! ! ! ! ! :     ! ! ! ! ! ! ! ! ! ! ! ! !       ! ! !       ^ W >       h ^ W !         R ! ! ! ! ! ! ! ! ! ! ! ! ! ! ! ",
"! !     8 ! ! ! ! ! ! ! ! ! ! ! ! ! ! ! ! ! ! ! ! 1     H ! ! ! ! ! ! ! ! ! ! !       ! ! ! &     3 ! ! ! !       ' ! R !       ! ! ! ! ! ! ! ! ! ! ! ! ! ! ! ! ",
"! !     6 ! ! ! ! ! ! ! ! ! ! ! ! ! ! ! ! ! ! ! ! 1     ! ! ! ! ! ! ! ! ! !           J ! !       ! ! ! ! ! !       X._ ! !     r ! ! ! ! ! ! ! ! ! ! ! ! ! ! ! ",
"! !     9 ! ! ! ! ! ! ! ! ! ! ! ! ! ! ! ! ! ! ! ! -     ! ! ! ! ! ! ! ! !           ! L !       k ! ! ! ! ! !         ! ! R     & ^ ! ! ! ! ! ! ! ! ! ! ! ! ! ! ",
"! !     w ! ! ! ! ! ! ! ! ! ! ! ! ! ! ! ! ! ! ! ^ -     ! ! ! T ! >               M ! ! !       B ! ! ! ! ! ! !       k ! H     & ! ! ! ! ! ! ! ! ! ! ! ! ! ! ! ",
"! !     8 ! ! ! ! ! ! ! ! ! ! ! ! ! ! ! ! ! ! ! ! >     ! ! ! O             @ ! ! ! ! ^       W J ! ! ! ! ! ! ! !     z ! S     & ! ! ! ! ! ! ! ! ! ! ! ! ! ! ! ",
"! !     6 ! ! ! ! ! ! ! ! ! ! ! ! ! ! ! ! ! ! ! ! 1     ^ !             8 ! ! ! ! ! ! y     + H ! ! ! ! ! ! ! ! !     v ! H     & ! ! ! ! ! ! ! ! ! ! ! ! ! ! ! ",
"! !     6 ! ! ! ! ! ! ! ! ! ! ! ! ! ! ! ! ! ! ! ! 1     !           s ! T ! ! ! W W !       ! ! ! ! ! ! ! ! ! ! !     v W H     & ! ! ! ! ! ! ! ! ! ! ! ! ! ! ! ",
"! !     w ! ! ! ! ! ! ! ! ! ! ! ! ! ! ! ! ! ! ! ! -     !       ' ! R ! ! ! ! ! w         8 ! ! ! ! ! ! ! ! ! ! !     l ! H     & ! ! ! ! ! ! ! ! ! ! ! ! ! ! ! ",
"! !     w G ! ! ! ! ! ! ! ! ! ! ! ! ! ! ! ! ! ! ! -     !     ! ! ! ! ! T W @             ! ! ! ! ! ! ! ! ! ! ! !     z ! H     & ! ! ! ! ! ! ! ! ! ! ! ! ! ! ! ",
"! !     8 P ! ! ! ! ! ! ! ! ! ! ! ! ! ! ! ! ! ! ! >     !     _ ! ! ! z               $ ! ! ! ! ! ! ! ! ! ! ! ! !     z W H     & ! ! ! ! ! ! ! ! ! ! ! ! ! ! ! ",
"! !     8 ! ! ! ! ! ! ! ! ! ! ! ! ! ! ! ! ! ! ! ! 1     !     w ! 1               t ! ! ! ! ! ! ! ! ! ! ! ! ! ! !     c T H     & ! ! ! ! ! ! ! ! ! ! ! ! ! ! ! ",
"! !     8 ! ! ! ! ! ! ! ! ! ! ! ! ! ! ! ! ! ! ! ! 1     !                     ^ ^ ! ! ! ! ! ! ! ! ! ! ! ! ! ! ! !     b H H     & ! ! ! ! ! ! ! ! ! ! ! ! ! ! ! ",
"! !     8 W ! ! ! ! ! ! ! ! ! ! ! ! ! ! ! ! ! ! H -     R -             = ! ! ! ! ! ! ! ! ! ! ! ! ! ! ! ! ! ! ! !     k W T     & ! ! ! ! ! ! ! ! ! ! ! ! ! ! ! ",
"! !     w D ! ! ! ! ! ! ! ! ! ! ! ! ! ! ! ! ! ! H >     ! ! >       k ! W ! ! ! ! ! ! ! ! ! ! ! ! ! ! ! ! ! ! ! !     z ! T     & ! ! ! ! ! ! ! ! ! ! ! ! ! ! ! ",
"! !     8 ( ! ! ! ! ! ! ! ! ! ! ! ! ! ! ! ! ! ! R <     ! ! ! ! ! ! ! ! W ! ! ! ! ! ! ! ! ! ! ! ! ! ! ! ! ! ! ! !     z ! T     & ^ ! ! ! ! ! ! ! ! ! ! ! ! ! ! ",
"! !     8 ! ! ! ! ! ! ! ! ! ! ! ! ! ! ! ! ! ! ! ! 1     ! ! ! ! ! ! ! ! ! ! ! ! ! ! ! ! ! ! ! ! ! ! ! ! ! ! ! ! !     c H H     & ! ! ! ! ! ! ! ! ! ! ! ! ! ! ! ",
"! !     8 S ! ! ! ! ! ! ! ! ! ! ! ! ! ! ! ! ! ! B 1     ! ! ! ! ! ! ! ! ! ! ! ! ! ! ! ! ! ! ! ! ! ! ! ! ! ! ! ! !       ! M     w ! ! ! ! ! ! ! ! ! ! ! ! ! ! ! ",
"! !                                                     ! ! ! ! ! ! ! ! ! ! ! ! ! ! ! ! ! ! ! ! ! ! ! ! ! ! ! ! !               W ! ! ! ! ! ! ! ! ! ! ! ! ! ! ! ",
"! !                                                     ! ! ! ! ! ! ! ! ! ! ! ! ! ! ! ! ! ! ! ! ! ! ! ! ! ! ! ! ! !             ! ! ! ! ! ! ! ! ! ! ! ! ! ! ! ! ",
"! !                                                     ! ! ! ! ! ! ! ! ! ! ! ! ! ! ! ! ! ! ! ! ! ! ! ! ! ! ! ! ^ W c         ! ! ! ! ! ! ! ! ! ! ! ! ! ! ! ! ! ",
"! ! ! ! ! ! ! ! ! ! ! ! ! ! ! ! ! ! ! ! ! ! ! ! ! ! ! ! ! ! ! ! ! ! ! ! ! ! ! ! ! ! ! ! ! ! ! ! ! ! ! ! ! ! ! ! ! ! ! ! ! ! ! ! ! ! ! ! ! ! ! ! ! ! ! ! ! ! ! ! ",
"! ! ! ! ! ! ! ! ! ! ! ! ! ! ! ! ! ! ! ! ! ! ! ! ! ! ! ! ! ! ! ! ! ! ! ! ! ! ! ! ! ! ! ! ! ! ! ! ! ! ! ! ! ! ! ! ! ! ! ! ! ! ! ! ! ! ! ! ! ! ! ! ! ! ! ! ! ! ! ! ",
"! ! ! ! ! ! ! ! ! ! ! ! ! ! ! ! ! ! ! ! ! ! ! ! ! ! ! ! ! ! ! ! ! ! ! ! ! ! ! ! ! ! ! ! ! ! ! ! ! ! ! ! ! ! ! ! ! ! ! ! ! ! ! ! ! ! ! ! ! ! ! ! ! ! ! ! ! ! ! ! ",
"! ! ! ! ! ! ! ! ! ! ! ! ! ! ! ! ! ! ! ! ! ! ! ! ! ! ! ! ! ! ! ! ! ! ! ! ! ! ! ! ! ! ! ! ! ! ! ! ! ! ! ! ! ! ! ! ! ! ! ! ! ! ! ! ! ! ! ! ! ! ! ! ! ! ! ! ! ! ! ! "
};
