/* XPM */
static char *grass[] = {
/* columns rows colors chars-per-pixel */
"80 80 55 1 ",
"  c #8FA507",
". c #92A607",
"X c #92A708",
"o c #94AD09",
"O c #97B20B",
"+ c #99B50C",
"@ c #97B80D",
"# c #9CBC0E",
"$ c #9CBE10",
"% c #A2BD0D",
"& c #9EC10F",
"* c #9FC210",
"= c #A2C20F",
"- c #A9C40F",
"; c #A7C80F",
": c #ABC80E",
"> c #ACCB0F",
", c #ACCC0F",
"< c #ADCC0F",
"1 c #B0CE0E",
"2 c #B4D20E",
"3 c #B9D60E",
"4 c #A1C310",
"5 c #A1C510",
"6 c #A3C711",
"7 c #A5C410",
"8 c #A4C510",
"9 c #A9C510",
"0 c #A9C610",
"q c #ACC710",
"w c #A6C811",
"e c #A9CA11",
"r c #A8CB11",
"t c #ACC911",
"y c #ABCD12",
"u c #ACCC12",
"i c #B0CC11",
"p c #B3CC11",
"a c #B0CF12",
"s c #B5CF11",
"d c #AED012",
"f c #B3D213",
"g c #B5D213",
"h c #B4D313",
"j c #B7D513",
"k c #B7D514",
"l c #BBD312",
"z c #B9D413",
"x c #B8D613",
"c c #BCD713",
"v c #BDD914",
"b c #C0DA14",
"n c #C2DC15",
"m c #C2DD15",
"M c #CAE216",
/* pixels */
"##*8utO*w55www&aeew&ww8wu&&4**4**&44888yev@*******4&5ww588ww%*e8j+&#&w58*&4&www=",
"***w8%O*&&&*ww4e8we&8ww4e&***&****&&*4%#OO+*********&ww8*e8u#ewwa#fl:@5&**&&44#&",
"*&=ww%85***&5w&w5ww&ew4&&**&**44*&5ewwwyzv&*&**4&***&*ww*458=w;u#wwu;u+***4*&&**",
"*&5w858=-***&5=85w&*w*&***&8&*&&**&5==&y-###e*#55****&*8*&&&5ww4ww=0uuO5********",
"**&58w=#O#***&&=85&=&#**&**u*#f8&**&&&5#**&ff#8u#&****&&*&**&w&&ww5w8=#4**4*****",
"**=wwwww**4*****&&**&*&&4*#w#u5#4&****&**#8y#8u%X*******#u#**&&&wwwwf+*&*******4",
"***8ww8;g#******&=**4&5&wOw8;wya+5**4*****884e=Ouw#*****#z&****&5www##**44**&4*&",
"+**$&&w#+#****OOOOO+&&w=54ww=8&###********e8e84ywjv*****#w&*****&4=#&****#*#5+&u",
"$##=&&=j##*****##+###www=e5=tv##u&4******&eww8858#O#4&&*#55&4***5******4&8-#q#e:",
"8aa++#&#+5********&+#*4&*55yg5=u5#*4*=***&5w854+o+##&uute58=&*5&#####**&5e#d+8u@",
"e%=O#&=*55****#&&=*&&&5www=w&=f=X##+O++OOO*&5www****8le5555&=@OOOOOOOO*&www=8e8e",
"550&##+++++++=ww885&&&&ww5ue&*++#*OOOOOO+#555ww8g4&*#%%;584&=+OOOOO+O#**&&&88855",
"*#@&OoOOOOOO#**w8ww5#*&*58t*wya=****&&****=855ue8:&*=sj5w88&**##+@+#**5&58&#*&&&",
"*8zO5&#####*&&&&<ewwe**&&&&*##O#*******4**458eo-ma#*##@=4#&****&****0#**u#8vO*&&",
"eu#*&*4&=&**5w855<>>3**********=&**&4;+5**#fwe5#O+4******Xe&***&0#*5f+48855a#*=w",
"##*4*&*&ww*;w88ww#8#o#*****44#%+&;+4w==#**5#sk=4*#*****&O#M&&*&5v%$w8%5wwwl+55&#",
"t#www5*&www#www;ewO==#******#;fO8y%e44vO****#a#***&+##&&Xz85&*&8&g+ww4www=#*&5wu",
"*&ww:w5&www#%ew*:<w+#&******#e58w&w548;44**4*##***4$=gu=Odw5&5*&&w=5e&588es@*&&&",
"*=ww<ww#w5w#@:y5@;3##&******=w5e*&w4088ut%*******&##=+tv*8w5&****88=w5**4e#$****",
"$e8e:8w#<;y=&+%2#o##*5&*&**&*w54&&*5ww;##*&&&#&5*@-juw=5k5w5**4&#==####&*****4**",
"*;w<w5w@:8<#**#O:f@ja&*#f#&&&4&&*&&u#&#**+OOOO#*#amw8wwwwee&#OOOOOOOOOOOOO+#*4**",
"*@2=;:#&;u2O****+ga*eu*wge&&*&***&y;O=*****##%#**#@;e8ww855ooOOOOOOOOOO+OOO+*&&*",
"*@:O2%O=#2o#*****ee88w&85u#gm#&&O*u=o@#==#oOOOOO#-vtewwww8&&#####@###+####4w55&=",
"**o#o#*&&o&4*****&eeww55w&wue&&y#Ou5O#wwt%O+O+OOO8yy&&485****4=##+Oo-eew=4ww8wu5",
"5554&*&&&***&##=*4uw;w=5w558*&&g6##w&8wwl OO+OOO#*&&e&&&&**5**#OOO+d:e5&w5wweg=v",
"w55w&&wey-OOOOOO#*uee6&5w*e5&*&#vw&w&wwu#==+O+OO#***&*&&4&&&**oO+OO%=Otww==5=8m@",
"e*w8&www-OOOO++OO=#&&*###*e***el;f8w68w&ewwdo+O#*****&*&&*u&#&O++O+Oo+l8y#*w+#wu",
"e88w#ww8u=O++OOOo+#5&o%#+#4***#g8;8ww5=8;u-oOO%5***5&5ew85*um=OOO+O+oa8w&o+wtO+w",
"$4ago=y*yd%OO+OO+2:&+:2@3#&***&&8www5*5e6#o+###+++O+==www8u=##=++Ooo+O+OO#Owe*#*",
"**u#Oo;mO-1+XO+o28<#&5;ww:#****&&&45**&*&&&&&#++++#&wu5ww;;am#*#XXXXXO+O&&+u#***",
"5w**OOO+%o d>o+#uwe#8w<:w<&******&#5&$&***&&w&*5*&&5wwz4&edf###O.XXXo&#=www&4*48",
"*w$*=#Xo-2&&w2#+e8w=5we<w8&***&&&*=@fe*#&5w&y=&***&ww58za+##***=**##&;fy5w;=5&88",
"w=&*=*5#+w<;8w<+www&&www04&**=w54&4#=8we55w=-w&&5*&8w-O*4t##&***##=4$**Of44w=88=",
"=#***#o#=#8w85ww&ww&=&585&**&#==88&#uwww#-w5+je&**&umO#4*#&*4*5#az##***==0e#-8#-",
"*5****2-:<55ww55&*=***&&***&%ew8&*+zw5ww#ew=*#u&**&4-o*4****$O@#y8f%****ou****##",
"&&****=www<;&&&*&&#+###+#*=Og&&&&*%u#ew&&+y&**&****&4@*8@+**#vl%#88e&*4**#O#&&&&",
"85&****4;5www=*&oOOOOOOOO*4*+=&*&**&#4&******4**4*&5ew88mg&&*u5eu45w&****ee885ue",
"ww8&4**&&*5555&*&##++###**#%u88ewww*444&*&++OOo#**4*&448#+**&wweww8*&***+X08#5ew",
"544&&****&*&&&****##5*******=t8%w5%w5w5&**+OOO#***&55weezz**4#O#5585&**#@a8&uu;5",
"45ww&************&#>8#**4*&#8&@g8+fOs4&4**&*&=*****#8#54&&5Oo+=55www8&*&u=#kue58",
"58w44*@##@@#+=****%+88*&&4***#%8*#*#5*****#*54***44&=w#*&&&*mdwy%w5w5***#+*88e84",
"8#5#*+oOOOOo+&****0t88w84&*****&*****4#**+5www4**&*&5a#****&&5%oyw4w5***+fww45w@",
"5*****4###=5=****##4wwww8&*********+oooo#ewwww5*&*&&54*&*****#od8#0f#*****ge#u#*",
"4**$&&5w*5w&=&&&**#%%5585&****4****OooooOue88w8*8w&&&&45&*****dw*4z$5**#&&&&&u&*",
"**&&&8w5=ww=&w8&***5w58w5******4*&***&##%0ae;8%yww&854*e8&***#Oo++#*#=055=5&$&**",
"*=58www=8w5wwww8#&&*#Xuw=&*4***#&45&**4*5+afu+z8w48ww8$8w5&5Ooooooo+=t088w5&****",
"**uw5=5&8uef&w5wewg*#%kw&***##%e8ww&&&4858&&#a4uw#tw8w5e8w=*ooOoooo$+p;555&5**4*",
"*$u5e=*=zej5#;vzu85***5**$4*#aa-ew&w54e55u&*ovve&#-w5wtdz5u&#+OOO#***7ee#8w&***&",
"**$#z#*54#&&*&#5*&&&*&==#0+5g@@%y5w#ff-8f*&&*##&&#%e==u:%m*&**5****&&=5*=e&***&=",
"#4j5#&********&*&***&*u+d+5gO5eaozuOa4oa&**&*****4+w+au%#%#***#88&&55=8*88&*&&ug",
"8t#X&&**************&eww55ewww%@%u&&###+#++++@*&&&#*@a&#4***&*&0ww54w#y#&8&*&wu#",
"e%#eu8&*************&&*&88w8858t##oOOOOOOO+OOOw85w5&*&&54#088=#eww8=e&>e&&**&8w5",
"8wwyua#*********&&**&u#*&&&&&*O#&&+OOOOOOOOO#**wwwww&*&*#885&#tw8e&-w*#g&***&w8w",
"5*#ooo#*****&&*&=t#*85#eg#4&45f0#*&&######&&55*#>u:eu*&#te5&*@z#e8*#y&&****&&8ew",
"8;5#&&5**4*&eg+*wg+5e88g#&&588%***&&***455&558e8==w=-=&&##**&*&#8&**&&###++#5&=5",
"ww8fw&****4&84a#ew#eww4%#=88-8#**&=ww5&*8ww&u85>y=+5#+&#a88w8e45*&*4**OOOOO#*&55",
"5tget&******#5e#8w58ww:e#*&&$****&e8ew8*www##<55>>;+#***#=8=w#e8w=*****###****e8",
"e+O:t&*=***4*#ww&w&&&4e#&***&****5w818w#w8w=#%dwO&3&##*#7-@g*-#t*&*******#***%u8",
"y8*&+5&&@##=*&55&&*&&&&*&&&*4****;;>:5e#ew:;&#O:w@o-5&**#*%8#5#5*#+*##&w8#****#g",
"s=&#+OOO++O+*4&&**&4*&&585&&*****#>>4w;@;w1@&**#+vuwgw&&m4*##&5&%g#=d%e5%vO*&**#",
"$#4+OOOOOOO#***4#=ewe&=wwwwe*****#:#:<O*#3%+****&uw88u&w8a&8v&*#y=5w&w85w-=w*&4*",
"$4**#+OOO@&=***#=y8w&w5w8e8ze5*&55O#+O&*&o#&*4&*5#eywe8=w54gu&*=w*w&&5=ewyw=#***",
"*=****&&&+OOOo@-ddu&8w&w8ez#g@*&85*8*488&&*5**4*&*f88855w558&&*&w=&&*&585&#***4*",
"*&**5*&&=##@+#+*&&Ojww=55=8m@*&&e45w&458ug&****&*&w085488&w5&***&&**&8uo***&&***",
"***&&&5e@=&&5*=**&-yww#4wO4uw*5&e&ww&ww5e&=#OOOoO+&&&=&&#*w&****4*=O*u5O5*455#**",
"**8ew544fn#&***5*oz584@#ewo&e#ead&ww&ww;uw&*&##@@X#&&@o#o#*******#a#oy5+$w8u%#**",
"*#ewwwwut=#&**##*&****#+we&+=&ez#=ue&w5w;y******O2<###3#1#*******&fe4#e&8w8s+*&5",
"*85wwww0tw##Oooo#*&&45#+a&**&&&&&&gf&#z8effO***#-;<&Oy:#<:#******w+gy8858ww4tuu#",
"88f4www=fm+#ooooo***#&585&**&5&&4&*5&*#m+Ow<O#*#,6,&%w<;w<#**4**&#meewww585wwu#&",
"w88v&#ef=O**55###*+#ew8e&&&=w5w&**&&****0#X52###,6w==w:;we&*****4&&w8www&5e8;#5*",
"ww=8c>@#****5***5Otde8w45=&w85w&******O#-2=&8u%+;ww==ww<8e&*******&&=###**&&#4**",
"wy%+5ef##4*****5+OOOOf85w=w84w%*******5+@w2=8w<+5wy&&www88&*****4*4**oooX#***4**",
"wnX$*###****&&*&o++oa%=y+jeoa:#4***4*#O;##wy8w8;&ew=&&8e8&*****4*****$O+********",
"faX***+OOOOOOO#&+OOO+od#oOooo#44****&*=+=5*8w88e&=r&*&&&************444*###&****",
"4O#***@+OOOO+Oo#=oO+O++OOOOO$###4**&*$<<<1<=555&&&&****4****4**#++++#55oooX+****",
"*****44*&=####**#=OOOOOOOO#&4+O#***&e*=w88we&&&&*******#e%#&&**OOOO+@445##&*$f+*",
"********4****#+#&5*&#####***4******&8e&&wwwww4*******$eojaO8+***&#&4**$=+*=+fgXw",
"$*********&*&#+#*&&&**=5*********4**w=*&&48584&****#we-#f5#fO**4&&***&g%;zq;w=g+",
"****&***&#8kg***5&eg$*m**&*$**&&*#*8y+**#*&&$*&*&***ujutu58y#*&#==#*#f4eu*ew&wu+",
"g0$$0e*$ygtuwg*5cef=$j85z******4**5845wua4*4***4****u=gee5ww%*8vvt#*4w*w5&54w8ed"
};
