/* XPM */
static char *snacks[] = {
/* columns rows colors chars-per-pixel */
"80 80 205 2 ",
"   c #000000",
".  c #0A0304",
"X  c #0D0903",
"o  c #02030B",
"O  c #0B090A",
"+  c #130908",
"@  c #0B1604",
"#  c #1C1205",
"$  c #14120C",
"%  c #020616",
"&  c #030A1B",
"*  c #150313",
"=  c #1B0A14",
"-  c #181715",
";  c #251706",
":  c #2A1C07",
">  c #2C1D08",
",  c #301E08",
"<  c #230B19",
"1  c #0D240B",
"2  c #162E10",
"3  c #242D07",
"4  c #372409",
"5  c #040D26",
"6  c #041033",
"7  c #061233",
"8  c #07153C",
"9  c #081539",
"0  c #310E28",
"q  c #341225",
"w  c #3B142B",
"e  c #2A2A29",
"r  c #363735",
"t  c #432B0B",
"y  c #482E0C",
"u  c #4D310D",
"i  c #52350D",
"p  c #57380E",
"a  c #5A390E",
"s  c #613D0F",
"d  c #643F10",
"f  c #471837",
"g  c #4A1A35",
"h  c #541D3D",
"j  c #354A04",
"k  c #274A1C",
"l  c #2F5C22",
"z  c #356826",
"x  c #3B732B",
"c  c #43570A",
"v  c #67410F",
"b  c #654010",
"n  c #6B4411",
"m  c #764A12",
"M  c #7F5014",
"N  c #627D0E",
"B  c #061643",
"V  c #071846",
"C  c #091A4D",
"Z  c #081C54",
"A  c #091F5C",
"S  c #0A205E",
"D  c #0B2263",
"F  c #0C256D",
"G  c #0C2773",
"H  c #0C2877",
"J  c #0D2A7D",
"K  c #5F1E45",
"L  c #5B2142",
"P  c #66234A",
"I  c #6E2751",
"U  c #792B58",
"Y  c #464645",
"T  c #595856",
"R  c #6F6F6F",
"E  c #845314",
"W  c #895614",
"Q  c #8D5A15",
"!  c #925D16",
"~  c #996117",
"^  c #A46718",
"/  c #AB6C19",
"(  c #B06E19",
")  c #BB761B",
"_  c #BA761C",
"`  c #C57D1D",
"'  c #CA7F1D",
"]  c #822D5E",
"[  c #863064",
"{  c #8C3165",
"}  c #913269",
"|  c #96346C",
" . c #A93B7A",
".. c #B03C7E",
"X. c #6E8E0E",
"o. c #468832",
"O. c #4B9435",
"+. c #56A93D",
"@. c #5DB741",
"#. c #66CA47",
"$. c #68CE48",
"%. c #6BD34A",
"&. c #6EDA4C",
"*. c #70DD4E",
"=. c #73E24F",
"-. c #75E751",
";. c #77EB52",
":. c #7BF355",
">. c #94AC09",
",. c #97B20B",
"<. c #99B50C",
"1. c #9CBC0E",
"2. c #87A913",
"3. c #98BB13",
"4. c #A2BD0D",
"5. c #CE811E",
"6. c #D4861F",
"7. c #D8871F",
"8. c #DB8A1F",
"9. c #E18D1F",
"0. c #D58620",
"q. c #DD8B20",
"w. c #E28E20",
"e. c #E59121",
"r. c #EB9321",
"t. c #F29721",
"y. c #F59921",
"u. c #FC9D22",
"i. c #FFA323",
"p. c #FFAB25",
"a. c #FFB226",
"s. c #FFBD29",
"d. c #9EC10F",
"f. c #9FC210",
"g. c #9DC318",
"h. c #A3C30F",
"j. c #A9C40F",
"k. c #AACA0F",
"l. c #B4D20E",
"z. c #A3C510",
"x. c #A9C610",
"c. c #A6C811",
"v. c #ABCB11",
"b. c #B1CE12",
"n. c #ABD417",
"m. c #B4D113",
"M. c #B9D513",
"N. c #BDD914",
"B. c #B1DD19",
"V. c #B8E719",
"C. c #C1DC14",
"Z. c #C8FA1B",
"A. c #D6FF1C",
"S. c #0E2C83",
"D. c #0E2E8C",
"F. c #0F308E",
"G. c #0E2F90",
"H. c #0F3193",
"J. c #0F3399",
"K. c #103293",
"L. c #11359D",
"P. c #0F36A1",
"I. c #1035A2",
"U. c #123AAD",
"Y. c #123CB4",
"T. c #133EBC",
"R. c #1441C3",
"E. c #1443CC",
"W. c #1546D4",
"Q. c #1649DC",
"!. c #164BE6",
"~. c #164CE9",
"^. c #184DEA",
"/. c #164FF2",
"(. c #184FF0",
"). c #1750F5",
"_. c #1850F4",
"`. c #1752FB",
"'. c #1854FE",
"]. c #1855FF",
"[. c #1A5AFF",
"{. c #B12D88",
"}. c #B63F83",
"|. c #E339AE",
" X c #B94186",
".X c #C3438C",
"XX c #C8448F",
"oX c #CC4793",
"OX c #CB4794",
"+X c #D64A9A",
"@X c #DE4DA0",
"#X c #E54EA4",
"$X c #E750A6",
"%X c #EE51AA",
"&X c #F453AE",
"*X c #F654B0",
"=X c #FC56B4",
"-X c #FF57B8",
";X c #FF59BC",
":X c #FF5CC2",
">X c #FF5FC9",
",X c #FF61CB",
"<X c #FF65D3",
"1X c #979797",
"2X c #AAAAAA",
/* pixels */
"1.1.f.z.v.v.,.d.z.z.z.c.z.c.1.b.c.v.c.d.c.c.z.c.v.d.f.f.f.f.f.d.f.d.d.z.z.z.k.c.v.N.<.f.f.f.f.f.f.f.f.d.z.z.c.z.z.z.c.c.4.f.v.z.m.1.d.1.d.c.z.c.d.d.f.d.c.c.c.h.",
"f.f.f.c.c.4.,.z.d.d.d.f.v.c.f.v.z.c.c.d.z.k.c.z.v.d.f.f.f.f.f.z.f.f.d.d.f.z.4.1.,.,.<.f.f.f.f.f.f.z.1.f.f.d.f.f.f.v.c.v.1.c.z.c.b.1.b.M.v.<.z.d.f.f.d.d.z.f.1.d.",
"f.d.h.c.c.1.z.h.f.f.f.d.z.c.d.c.z.c.c.d.c.c.z.f.d.f.f.d.f.f.f.d.f.d.z.c.c.c.c.c.M.N.z.z.f.f.f.f.Y               f.z.z.z.d.c.c.b.1.c.z.b.h.v.<.f.f.z.f.f.d.d.f.f.",
"f.d.z.c.z.z.z.h.j.f.f.f.d.z.d.c.z.c.d.d.c.f.1.f.f.f.d.z.d.f.d.d.f.f.d.z.z.z.f.v.j.1.f.r         % B S.Q._._.!.Z     f.1.f.c.c.f.z.c.c.z.v.b.<.f.f.d.f.f.f.f.f.f.",
"f.f.d.z.z.z.h.1.,.1.f.f.f.d.d.d.c.z.d.h.d.d.f.f.d.f.f.v.f.1.m.c.f.f.f.z.d.f.f.f.        & J J.^.].`.`./.).].].`.7         f.d.d.c.c.z.c.c.h.1.f.f.f.f.f.f.z.f.f.",
"f.f.h.c.c.c.c.v.d.f.f.f.f.f.f.d.d.d.d.f.d.f.f.f.f.z.1.c.1.v.z.1.z.f.f.-         B S.].[.`.`.`.).`.'.Q.Y.G &       C S.W.G.    T f.v.c.z.m.,.f.f.f.f.f.f.f.f.f.f.",
"f.f.f.z.c.c.z.z.m.1.f.f.f.f.f.f.f.f.f.z.f.d.z.1.z.>.c.z.z.h.f.f.e     o F H._.[.E.F o J [.!.P.F 7         8 J T.[.`././.`./.S.%   - c.c.<.d.z.f.f.f.d.f.d.f.f.d.",
"<.f.f.d.d.h.z.1.4.1.z.d.f.f.<.,.,.>.,.,.d.d.z.z.z.z.f.f.-       % J `.[.E.J       B H         7 D D.~.].].].).^.~.~.!.~.!.~./.].~.B   . d.f.f.f.f.d.h.1.z.<.d.b.",
"1.1.1.d.d.d.h.m.1.1.f.f.f.z.d.1.1.<.<.1.1.c.f.f.Y       5 S.Y.[.`.L.B     8 H.E.].`.`.J F R.].`.`./.~.~.!.!.~.!.!.!.~./.`.`.Q.L.D C       f.f.f.d.z.k.1.k.1.v.k.",
"c.m.m.,.,.1.z.1.<.f.f.f.f.f.f.f.f.f.f.f.f.$     o J U.`.`.`.~.5     F R.`.`./.^.~.!.~./.`.^.!.!.~.~.~.~.~.!.~./.`.`./.J.D                 d.f.d.z.c.1.b.1.f.b.<.",
"c.1.j.,.1.d.h.d.z.f.f.f.d.d.d.f.f.$       Z U.`.`././.~.~./.  J /.]././.~.!.!.~.~.!.~.!.!.~.~.~.!.!.~.~.).`._.U.Z         < L oX X        f.f.d.c.c.c.d.z.c.z.c.",
"z.c.z.h.1.1.<.<.<.<.<.,.d.d.r     % D.E.].`.~.~.~.~.~.^./.[.  R./.~.~.~.!.~.~.~.~.~.~.~.~.~.~.^.`.`._.R.J 7       . w | &X<X%X0   4 O r   f.f.f.d.d.d.h.c.j.f.c.",
"f.<.<.f.,.,.,.,.,.f.f.      8 L.`.`./.^.~.!.!.!.~./.`.^.L.S   J /.~.~.~.~.~.~.~.!.!.~.^./.`.].R.J o         L ] &X:X;X:X*Xq   # 5.a.^ X   f.f.d.f.h.d.1.f.d.d.d.",
"f.z.M.,.f.d.1.1.f.    H E.[.`./.~.!.~.~.!.~._.`.`.J.8     9 J Q.~.!.~.~.!.!.~.~./.`.].W.H.B         g } OX:X-X-X*X=X;X[     ~ p.u.t.` b   f.f.d.v.d.z.N.,.f.d.d.",
"c.v.1.f.f.f.z.f.f.      D H.`.`./.!.^.).]._.G.C     B U.].`._.~.~.~.~.~.^.`.`.~.D.C   .     q { +X,X;X-X=X&X&X&X:X+X    n i.i.r.y.e.      f.f.c.h.z.c.v.1.f.f.c.",
"1.d.f.f.f.1.f.d.z.  B A       B U.[.W.F %     A I./.`./.~.!.~.!.~.^.`.`.Y.A 5       w | @X:X>X-X*X&X&X&X&X&X=X:Xh   4 8.i.y.t.t.t.r.~ a   f.z.c.c.c.M.<.f.h.z.1.",
"v.1.z.c.c.c.d.d.c.  H ].].Y.Z           F.E.].`._.~.!.!.!.!.(.`.].Q.C       X U .X:X<XXXI I ] *X:X-X&X&X*X:XoX    Q p.y.t.t.t.t.y.w.      f.c.c.c.h.1.d.d.h.c.v.",
"f.d.c.c.v.z.z.d.c.  G./.~.^.`.`.F.&     8 W.]._.~.!.!._.`.].R.S       w }.;X:X-X;XoX          .   I -X=X:Xh   4 i.u.t.t.t.t.t.t.t.i.s.E   f.z.z.c.c.m.<.f.d.d.d.",
"f.h.c.c.k.c.c.1.k.  L._.~.~.!.~.).].R.V     % H.`.`.].W.D       < { =X;X=X&X&X*X;X    +.*.=.-.@.z   * %X    ^ p.y.t.t.t.t.y.t.t.u.m # ;   f.f.f.f.v.1.1.f.f.f.f.",
"f.c.c.k.k.c.c.<.v.  J ).~.~.~.~.!.~./.`.`.D.    & F       h | :X;X=X&X&X&X&X&X;X*   +.-.&.$.@.*.&.:.2   t y.i.t.t.t.t.t.t.t.t.t.t.i.^ #   f.1.1.f.f.f.f.f.f.z.f.",
"f.h.c.k.j.c.c.<.k.  G ).!.~.~.~.~.~.~.!.~.).[.L.    g  .-X;X=X*X&X&X&X&X&X&X-X{   x ;.z l =.k x %.%.#.  ~ i.t.t.t.t.t.t.t.t.t.t.u.i       f.,.,.,.,.<.1.f.f.f.f.",
"f.<.l.h.z.k.1.d.j.  G ).~.~.!.!.!.!.~.!.!.!.^.^.  h ,X-X&X&X&X&X&X&X&X&X&X&X-X  @ -.%.@.O.$.&.&.$.$.&.z X i.t.t.t.t.t.t.t.t.t.t.y.e.e.4   d.,.,.,.,.,.<.f.d.d.f.",
"f.1.k.,.l.h.,.d.1.l.G ).~.!.~.~.~.~.~.~.!.~.^.!.  g ;X&X&X&X&X&X&X&X&X&X&X-X{   +.%.&.+.@.&.#.#.$.$.%.O.  u.y.t.t.t.t.t.t.u.u.t.u.Q n #   f.1.1.1.1.z.c.z.h.d.d.",
"f.f.>.d.>.1.f.d.d.>.H ).~.~.!.~.~.!.!.~.~.~.~.Q.  g ;X&X&X&X&X&X&X&X&X&X&X-Xh   ;.=.o.    #.$.#.$.$.&.x   u.y.t.t.t.t.t.p.W ~ u.u.M 4     f.v.c.z.z.z.c.c.c.v.z.",
"c.z.f.f.d.f.d.d.d.f.Z `.~.!.~.~.~.~.!.~.~.!.~.!.  < ;X&X&X&X&X&X&X&X&X&X&X;X0 1 -.O.  |.  @.=.@.$.#.=.1   i.t.t.t.t.t.i.u     i.u.) s.#   f.z.f.c.c.c.c.c.M.h.N.",
"c.d.c.c.d.d.c.v.v.j.V `.~.!.~.!.!.~.!.~.~.!.~.`.  = ;X&X&X&X&X&X&X&X&X*X&X-XL 1 ;.  < {.  -.@.  x &.#.  p i.t.t.t.i.y.`   t r.y.q.        f.v.c.c.d.d.c.h.c.N.<.",
"c.d.c.c.d.c.c.c.k.,.7 `.~.~.!.~.~.!.~.~.~.~.~.).  = ;X&X&X&X&X&X&X&X&X&X&X=XXX  =.$.          1 #.;.k   6.y.t.t.i.4 m M   ` u.y.y.p.e.    ,.m.c.c.1.f.c.<.1.c.v.",
"v.h.c.z.1.c.c.c.v.h.% ].!.~.~.~.~.~.~.!.!.~.~.).    :X&X&X&X&X&X&X&X&X&X&X,X|   1 =.:.o.l x +.;.=.l   y i.u.y.y.'   ^ E   p.p.i.i.E a     m.c.c.d.>.<.c.v.,.<.c.",
"f.f.b.m.>.j.v.f.v.b.o `.!.!.~.!.!.~.~.!.~.~.~.].&   :X&X&X&X&X&X&X&X&X*X:Xg   : .   @.:.;.:.;.%.2   : p.u.E w.i.m   y.Q   m # $ q./ 4     ,.,.<.,.1.<.z.v.f.1.f.",
"f.d.v.1.,.,.z.N.,.c.  ).~.~.~.!.!.~.~.~.!.~.!.].%   &X*X&X&X&X&X&X&X=X%X.   ! p.p.s     2 2 1   . m i.t.i.  n p.  ; p.i.      ;   a.p.    <.,.<.d.d.<.v.1.f.f.f.",
"z.c.d.d.,.,.,.<.4.>.  !.~.~.~.~.~.~.~.~.~.!.~.`.5   $X*X&X&X&X&X&X:X.X    ) i.t.t.i.e.n : : , M r.p.i.y.i.: 4 r.  a u.y.i.0.u.q.  M       d.<.z.c.c.v.d.f.f.d.z.",
"f.c.d.f.f.<.>.>.k.l.  Q.~.~.~.~.~.!.~.!.~.~.~.`.V   oX=X&X&X&X&X:XI     i.i.t.t.t.y.y.u.i.p.i.i.i.Q t y.i.a ; E   r.y.t.y.y.u.)   q.e.    j.b.v.z.c.k.d.z.h.z.z.",
"c.h.d.f.f.f.c.1.,.c.  Q.~.~.~.~.!.~.!.~.!.~.!.`.C    X=X&X&X&X:XP   i p.y.t.t.t.t.t.t.t.t.t.t.y.5.      p.a   + : p.t.t.t.y.u._   5.0.    f.f.,.m.h.z.z.h.z.z.h.",
"h.1.f.f.f.1.>.1.z.1.  !.~.~.!.!.~.~.!.~.~.~.!.`.G    .=X&X*X,X=   Q p.t.t.t.t.t.t.t.t.u.t.t.t.i.i   r.  u.W     ; p.t.t.r.8.i.E   '       f.f.h.h.z.v.1.j.c.1.j.",
"f.f.f.f.d.f.l.j.k.k.  T./.~.~.~.~.!.~.!.~.!.~./.D.  { -X*X*X*   _ i.t.t.t.t.t.t.t.y.r.~ i.y.t.i.X 4 p.i.i.W       b i.y.e.# s.X X a.p.    f.f.f.,.v.f.f.f.f.1.1.",
"d.d.f.f.f.f.j.z.z.k.  P./.~.~.~.!.~.~.!.~.~.~./.I.  L :X;X    8.i.r.t.t.t.t.t.t.t.u.^   / u.t.i.  a i.t.u.)   # /   6.u.r.  ;   a )       f.f.z.f.1.,.1.d.d.d.1.",
"z.z.1.f.f.f.f.z.z.z.  S.).~./.`.`./.~.~.!.~.~.^.W.  w #X    e.u.t.t.t.t.t.t.t.y.y.i.t     i.y.u.  n i.t.y.w.  / a.4   i.i.Q X ; u.p.6.    f.f.f.f.v.v.z.z.z.v.v.",
"c.v.z.d.f.f.f.d.d.z.  A `.).D   V T.Q._.].~.!.^.E.  =     u.u.t.t.t.t.t.t.t.t.r.r.i.# .   ^ u.u.  M i.y.y.i.  m i.q.  W u.u.i.p.r.  $     f.f.z.,.>.z.z.1.z.v.c.",
"z.z.f.d.d.f.f.f.f.f.  9 `.^.E.D o       o ].~.~._.    ; p.y.t.t.t.t.t.t.t.t.i.4 . s.  m m   i.p.  a i.u.) p.  u i.i.> W u.t.t.t.y./ E     f.f.1.,.b.z.f.v.v.c.z.",
"f.z.c.c.f.f.f.f.f.z.  & ].~./.].[.).G.S 5 W.^.~.^.    i.y.t.t.t.t.t.t.t.t.t.i.4   i.  E i.  ~ p.; : p./   r.X ; i.t.i.u.t.t.t.t.y.r.q.    d.f.d.v.z.1.M.v.c.z.z.",
"z.h.z.f.f.1.1.1.1.<.1.  ].^.R.8 D.E.[.].].^.~.~.`.    u.y.t.t.t.t.t.u.i.y.y.i.p . y.  5.)   # a.t   s.;   p.n 5.u.t.t.r.t.t.t.y.i.t       d.f.1.<.<.f.z.z.z.c.z.",
"z.d.z.d.f.1.>.,.,.,.>.  ).^.~.      o A J ~.~.~.].    y.y.t.t.t.t.u./ 4 y.y.i.t   y.  ,       p./   M   d i.i.y.t.t.t.t.t.t.t.t.t.a.u.    f.f.f.1.m.c.c.z.z.c.<.",
"f.d.d.f.f.f.d.1.1.d.h.  _.~.~.].).U.9     Y./.~.`.    6.y.t.u.u.t.i.m   > p.i.t   w.    u q.  _ i.      8.y.t.t.t.t.t.t.t.t.t.t.p.i       f.f.f.f.f.m.v.1.v.1.f.",
"f.f.f.f.d.d.z.c.d.z.c.  T.^./.I.R.].[.[.Q./.~.!.`.7   ' u.i.W _ i.u.M     t a.m   0.  / p.i.  a i.i.8.u.u.y.t.t.t.t.t.t.t.t.y.p.) .       f.f.d.d.d.d.f.f.v.d.d.",
"f.d.d.d.d.z.c.h.d.c.c.  L./._.F.    5 J.W.`.!.!.].7   ' p.      E i./   !   ) E   0.  / u.i.,   i.t.y.y.t.t.t.t.t.t.t.t.t.p.t.>           f.k.c.f.h.f.d.f.d.f.f.",
"f.d.z.c.c.c.v.d.z.c.z.  G ).~.).W.F %     B `.~.`.B   6.!   ' w.  p.(   w.m   b   0.  / u.y.e.4 i.t.t.t.t.t.t.t.t.t.t.u.p.a     { ;X:Xq   f.z.z.c.c.c.d.f.f.f.f.",
"f.f.v.c.c.h.z.d.h.v.v.  Z `.~.!.^.`.].).S.R.~.~.`.D   q.u   p.y.i.y.7.  _ p.      0.  / u.t.y.i.t.t.t.t.t.t.t.t.t.y.p.) X   w =X;X*XOXw   f.h.h.c.d.d.d.f.f.d.f.",
"f.1.v.z.c.h.f.d.M.v.M.  7 `.~.!.~.!.!.~.).^.!.~.).D   ' !   p.i.i.y.r.  E i.)     _   ^ u.t.t.t.t.t.t.t.t.t.t.t.u.p.t     OX:X*X*X..      f.v.c.1.c.c.d.f.f.f.d.",
"f.f.1.f.m.1.f.z.z.1.f.  o ].~.~.~.!.~.!.~.~.~.~.).D   ~ i.  u a p u.i.  v i.i.p   W 8.7.y.t.y.t.t.t.t.t.t.t.t.p./     I :X=X&X&X*X+X@X]   f.z.d.h.c.d.f.f.f.d.z.",
"1.z.m.z.1.d.z.d.f.f.f.  o ].!.~.~.!.~.~.~.~.~.!.).S   n p.Q         a.X > i.t.u.+ ^ u.y.t.t.t.t.t.t.t.t.y.u.p.p     +X:X;X;X*X&X;Xw       f.f.1.z.z.d.z.d.d.v.m.",
"z.v.1.>.d.d.f.f.f.f.f.-   `.~.~.~.~.!.~.!.~.!.~.).S.  n i.u.y.p.q.  ( t X i.t.y.i.u.t.t.t.t.t.t.t.t.t.t.i.5.    ] ;X:X+Xh f oX-X&X;X;X+X  f.v.d.d.z.d.f.d.c.v.d.",
"v.4.<.v.v.c.d.f.f.f.f.-   _.~.!.!.~.~.~.~.~.~.~._.K.  p i.t.t.t.i.  ~ n   p.t.t.t.t.t.t.t.t.t.t.t.y.y.p.n   . XX:X;X[     @ . +X=X&XU I   f.x.v.d.d.f.f.d.c.h.d.",
"z.c.c.c.v.b.d.d.f.f.z.-   W.^.~.~.~.!.!.!.~.~.~.^.T.  4 p.t.t.t.p.  d ^   9.y.t.t.t.t.t.t.t.t.t.t.i.e.    P :X=X=X}.  X.n.A.j < :X@Xq g   1.f.f.1.f.f.f.d.c.c.c.",
"z.f.1.>.>.,.1.f.f.f.f.r   Y./.~.!.~.~.~.~.~.!.!.^.Q.  # i.y.u.y.i.  m i.i y.t.t.t.t.t.t.t.t.t.y.i.Q      X:X*X&X;Xw X.Z.2.3.3.  ;X-X@X%XO f.f.f.f.f.h.d.d.c.c.c.",
"z.h.z.d.d.d.f.f.f.f.f.R   S.).~.!.~.~.~.~.!.~.~.~.~.  4 p.r.^ p.)   W i.i.t.t.t.t.t.t.t.t.t.i.y.#   w ,X;X;X:X-X:X* X.N V.V.2.  :XOX        1.f.1.1.<.1.d.d.d.c.",
"c.c.c.b.c.d.f.f.f.f.f.f.  F /.~.~.~.!.!.~.~.!.~.~.].    u.d   p .   w.y.t.t.t.t.t.t.t.t.y.p.Q      X:X-X X. 0 | >XU o c.V.B.O w ;X=X,X,XP   <.,.,.,.>.1.f.d.c.h.",
"h.v.m.v.v.d.d.h.f.z.f.2X  Z ].~.~.~.!.!.~.~.!.~.~.].&   q.i.;   X 5.u.y.t.t.t.t.t.t.t.i.i.:   = $X-X=X}.. 3 j   P >X.     o   P :X-X    .   f.1.1.1.f.f.f.z.c.z.",
"c.1.,.j.v.d.d.d.f.f.z.f.  5 '.~.!.~.~.~.~.!.~.~.~.`.B   / i.i.t.p.y.t.t.t.t.t.t.t.y.p.!     } :X*X&X:X* j N A.B.  oXOX  X.c.B.  K ;X$XXXU   f.f.f.d.f.f.f.1.v.z.",
"v.k.f.d.<.h.d.d.1.1.1.1.  % '.!.!.~.~.~.~.~.!.!.~.).A   E i.t.y.t.t.t.t.t.t.t.t.y.i.a   = %X;X&X*X*X%X  g.Z.j Z.   .* c V.g.3.X.o ;X-X,X$X  f.z.j.<.f.f.f.f.1.M.",
"b.1.d.1.<.,.,.,.,.,.<.<.    /.~.~.~.!.!.!.~.~.~.~./.D.  i i.t.t.t.t.t.t.t.t.t.i.e.    ] >X*X&X&X&X&X=X  3.3 Z.g.  |   n.N V.3.N * :X..      f.z.d.N.,.f.d.f.f.1.",
"1.1.z.<.,.,.,.,.,.,.,.1..   ^.^.~.!.~.~.!.~.~.~.~./.Y.  > i.t.t.t.t.y.t.t.t.p./     .X:X&X&X&X&X&X&X;Xh   j j   O %X  c.g.2.A.1 < :X=X+X-X* f.z.c.k.h.z.f.d.f.f.",
"z.f.f.f.1.1.,.,.,.1.d.f.e   Q.^.~.~.~.!.~.~.!.!.~.^.Q.    i.t.t.t.t.t.t.y.p.y   < ;X=X&X&X&X&X&X&X&X&X:X}.f 0 U :X,X*   X.B.c   .X-X+X      f.c.c.v.v.4.1.f.f.z.",
"f.f.f.f.d.f.d.d.d.,.,.,.Y   P./.~.).).`./.!.~.~.!.~.).    p.t.t.t.t.t.y.t.;   U :X*X&X&X&X&X&X&X&X&X&X&X=X;X;X=X&X&X=Xh       .X-X&X*X.X#X X  z.z.d.1.f.f.f.z.f.",
"f.f.f.f.h.d.d.d.d.d.<.,.R   H./.`.    Z I.].]./.~.~.].o   i.t.t.t.t.i.r.    }.;X&X&X&X&X&X&X&X&X&X&X&X&X&X&X&X&X&X&X&X;X=X#X;X=X&X&X*X:X=     f.f.f.f.f.f.f.f.f.",
"f.f.d.d.d.d.z.v.d.d.f.f.f.  A `.~.Q.A o       S._.~.`.8   w.y.t.y.i.~     +X-X&X&X&X&X&X*X&X&X&X&X&X&X&X&X&X&X&X&X&X&X&X&X*X*X&X*X;X:XOX=     f.f.f.f.z.z.1.f.f.",
"f.f.z.c.z.z.f.z.m.N.1.f.f.  6 `.~.E.Q.[.Q.J &   `.~.`.9   ) u.t.i.~ o = =X-X&X&X&X&X&X&X&X&X&X&X&X&X&X&X&X&X&X&X&X&X&X&X&X*X-X;XOXP .         f.f.f.1.v.4.1.f.f.",
"f.1.v.c.c.c.c.v.v.4.1.f.f.  7 '.~.~.    S._.[.].!.~.`.F   Q i.p.i   g >X&X&X&X&X&X&X&X&X&X&X&X&X&X&X&X&X&X&X&X&X&X&X*X-X:X+XP         $       f.f.f.v.b.<.f.f.f.",
"z.z.z.c.z.c.c.x.k.c.d.1.f.  & ].~.(.U.S     o P.^.~./.D.  v p.4   I :X&X&X&X&X&X&X&X&X&X&X&X&X&X&X&X&X&X&X&X&X*X-X:X@X{ <                 f.f.f.1.z.z.d.v.v.v.1.",
"z.c.m.z.c.c.c.z.b.C.<.1.f.    ].~.~./.`.).L.Z Y.^.!./.Y.  # ,   | :X&X&X&X&X&X&X&X&X&X&X&X&X&X&X&X&X*X*X*X;X,X%XU =                   f.f.c.c.c.z.z.f.c.c.b.1.d.",
"c.z.z.N.d.1.v.m.j.,.f.f.f.$   !.~.~.~.!.~./.`.~.~.~.~.(.      XX;X&X&X&X&X&X&X&X&X&X&X&X&X*X&X&X&X*X-X:XoXP =           e f.f.f.f.f.f.c.z.c.c.c.d.z.c.c.z.1.d.f.",
"c.c.h.c.N.v.<.1.f.f.f.f.f.f.  U._.~.!.!.~././.~.~.~.!.].    | ;X&X&X&X&X*X&X&X&X&X&X&X&X&X&X&X-X:X*XU $         O     f.f.f.f.f.f.f.f.f.f.4.1.1.1.f.d.d.d.z.f.f.",
"z.v.1.<.h.c.b.1.1.f.f.f.f.f.  D.].!.~.~.^.L.F /.).~.!.].7   XX-X&X&X&X&X&X&X&X&X&X&X&X&X*X;X;X| =         e     - f.f.f.f.f.f.f.f.f.f.f.f.>.>.>.>.1.z.f.f.d.f.f.",
"c.N.>.1.f.1.1.1.f.f.f.f.f.f.    F.]./.~./.G     D.^.~.`.D   { -X&X&X&X&X&X&X&X&X&X&X;X;X=XL       $ R -   $ f.f.f.f.1.f.f.z.d.f.f.f.f.f.z.1.,.1.d.f.f.f.f.f.f.f.",
"m.b.>.f.f.f.1.,.,.,.,.,.,.f.f.f.    U.]./.`.].D   Q.~./.P.  g ;X&X&X*X&X&X&X*X=X;X-X[         1Xo     f.3.f.1.f.f.f.f.f.f.f.f.f.f.z.f.f.f.f.f.f.1.<.1.f.f.f.f.f.",
"f.1.<.f.f.f.1.<.,.,.,.,.,.,.f.f.f.    o I.^.`.`.`.^.~.^.Q.  + :X&X&X&X*X*X;X*X..w   o         f.f.f.f.f.f.f.f.z.f.f.f.f.f.f.d.1.1.<.<.,.1.f.f.,.>.>.>.<.f.d.f.f.",
"f.f.f.f.f.f.f.f.d.d.1.1.1.f.f.f.f.d.Y       A !.].^.~.~.`.  . :X&X=X;X:XoXh         R O     f.f.f.f.f.f.f.f.f.1.c.4.f.f.d.f.f.,.>.,.,.,.d.f.f.f.1.1.d.f.f.m.<.f.",
"f.f.f.f.f.f.f.f.z.f.z.f.f.1.<.<.d.f.f.f.f.      9 T.]./.].    =X:X}.L O       $ T o   2Xf.f.1.f.f.f.f.f.f.1.v.>.M.v.,.j.<.d.z.f.d.1.1.z.f.f.1.h.<.f.h.1.v.M.>.f.",
"1.f.f.f.f.f.f.f.f.f.d.f.d.1.<.1.f.d.d.d.f.f.f.$     5 I.].C   g .         2XY   - c.d.h.z.z.f.f.f.f.f.f.z.b.x.<.m.z.d.n.,.f.f.f.f.d.f.f.f.d.M.4.j.M.v.h.z.h.M.<.",
"z.1.f.f.f.f.f.f.1.f.z.M.M.f.f.f.z.d.v.m.1.f.C.1.f.f.            e f.f.f.f.f.f.f.d.d.d.d.f.f.f.1.f.f.1.f.v.m.b.v.v.f.c.c.1.d.d.1.h.h.1.f.1.b.f.v.v.f.c.c.d.c.v.<.",
"m.x.1.f.v.v.f.1.v.m.v.v.z.m.f.z.N.v.v.z.f.M.z.f.M.f.f.f.f.f.f.f.f.f.h.z.f.f.c.v.m.f.f.f.f.f.f.z.f.f.f.f.v.z.m.v.v.z.c.c.4.f.c.N.N.v.1.z.z.c.f.c.c.d.c.d.c.z.v.b."
};
