/* XPM */
static char *troll_white[] = {
/* columns rows colors chars-per-pixel */
"80 80 136 2 ",
"   c #000000",
".  c #060806",
"X  c #080907",
"o  c #0C0D0B",
"O  c #0F100E",
"+  c #131513",
"@  c #171816",
"#  c #181A17",
"$  c #1B1C1A",
"%  c #1F201E",
"&  c #20211F",
"*  c #232422",
"=  c #272826",
"-  c #282927",
";  c #2C2C2B",
":  c #302F2E",
">  c #30312F",
",  c #343533",
"<  c #373837",
"1  c #383836",
"2  c #3C3D3B",
"3  c #3F403E",
"4  c #41413F",
"5  c #444443",
"6  c #484947",
"7  c #4C4D4C",
"8  c #4F504E",
"9  c #50504F",
"0  c #545453",
"q  c #585756",
"w  c #575856",
"e  c #595957",
"r  c #5B5C5A",
"t  c #605E5C",
"y  c #5F605F",
"u  c #61615F",
"i  c #646563",
"p  c #686867",
"a  c #6C6C6B",
"s  c #6F706F",
"d  c #747372",
"f  c #777877",
"g  c #7C7C7B",
"h  c #827E7B",
"j  c #94AC09",
"k  c #97B20B",
"l  c #99B50C",
"z  c #9CBC0E",
"x  c #9DBE10",
"c  c #A2BD0D",
"v  c #9EC10F",
"b  c #9FC210",
"n  c #A3C30F",
"m  c #AAC40F",
"M  c #AACA0F",
"N  c #B3D10F",
"B  c #A3C510",
"V  c #A9C610",
"C  c #A6C811",
"Z  c #ABCB11",
"A  c #B1CD12",
"S  c #AED012",
"D  c #B4D213",
"F  c #B9D513",
"G  c #BED914",
"H  c #C1DC14",
"J  c #84817F",
"K  c #858482",
"L  c #8A8682",
"P  c #8D8986",
"I  c #8D8C8A",
"U  c #908B87",
"Y  c #918D8A",
"T  c #8F908F",
"R  c #94918E",
"E  c #98938F",
"W  c #959492",
"Q  c #999592",
"!  c #979897",
"~  c #9B9895",
"^  c #9D9C9A",
"/  c #A19E9B",
"(  c #9FA09F",
")  c #A4A29F",
"_  c #A4A3A2",
"`  c #A9A6A4",
"'  c #ABA9A7",
"]  c #ACABAA",
"[  c #B1AEAB",
"{  c #AFB0AF",
"}  c #B2B1AF",
"|  c #B4B4B3",
" . c #B8B6B4",
".. c #BAB8B7",
"X. c #BBBBBA",
"o. c #C1BFBD",
"O. c #C2C1BF",
"+. c #C4C4C3",
"@. c #C8C7C6",
"#. c #C9C8C6",
"$. c #CCCCCA",
"%. c #D0CFCE",
"&. c #D2D0CE",
"*. c #D4D4D3",
"=. c #D6D5D4",
"-. c #D7D7D6",
";. c #D8D6D4",
":. c #D8D7D5",
">. c #D9D8D6",
",. c #D9D8D7",
"<. c #DDDBDA",
"1. c #DDDCDB",
"2. c #E0DFDE",
"3. c #DFE0DF",
"4. c #E0E0DF",
"5. c #E2E1E0",
"6. c #E4E4E3",
"7. c #E6E5E4",
"8. c #E7E7E5",
"9. c #E8E7E6",
"0. c #E8E8E7",
"q. c #E8E9E7",
"w. c #ECECEB",
"e. c #EFEDEC",
"r. c #EFEFEE",
"t. c #F0F0EF",
"y. c #F3F3F2",
"u. c #F4F4F3",
"i. c #F5F5F4",
"p. c #F8F7F7",
"a. c #F8F8F7",
"s. c #FBF9F9",
"d. c #F9F9FA",
"f. c #FCFBFC",
"g. c #FDFDFD",
"h. c #FDFEFE",
/* pixels */
"z z b B Z Z k b C B B B C C z S C C C v C C B C A v b b b b b b b b b B B B B C B H l b b b b b b b b b B B C B B B C C c b C B D l n v z C B B v v b v B C C n ",
"b b b C C z k n v v v b C C B C B C C n B C B B C v b b B B b b b b b B b b B B B B B b b b B b b b b b v C C B B C B Z c C C C A z D D m z B v b b v v B B z v ",
"b v n B C v B b b b b v B C n C B C B v C B B v b B W ,             . . .                   O 9 ' b b b x b C B x B B B v C m S z C C Z m Z l b b b b b z b b b ",
"b v B C B n B m m b b b v B v B B C b n C B v b <     $ 6 I o.:.<.<.-.&.&.%.-.2.%.:.@.} L q ;       5 b b b B B b v v v B C C b C C B V Z S l b b b b b b b b b ",
"b b v B B B n z k z b b b v v v B B v v z B 1     i _ o.h.h.d.s.h.h.h.h.h.h.h.h.h.h.h.h.h.h.h.s.+.w     o K B b b z b b v C v v C C B C B m z b b b b b b b b b ",
"b b v C C C C C v b b b b b b v v v b b ^     0 _ Q U P L R U E ^ W U ~ ~ ) ) ) ) ] ] ) h.h.h.h.h.+.o.p       X 5 b b b v v v v C C B C S l b b b b b b b b b B ",
"b B x B C C B m D z b b v b b b v B v 2   & | 9.4.t.d.h.h.h.~ X.t.h.h.h.h.h.d.h.h.h.h.h.h.i.h.h.%.;                       + B b B B C C z v b b b n v b v v v v ",
"l b b b v n b z z z b b B b l k k b     _ h.h.h.h.h.h.o.d 0 1 O   1 o.5.h.h.h.h.h.h.h.h.h.h.h.h.' i q d P Q Y g t $   . o       * b b z v v b b b v b z B z v Z ",
"z v z v b b v F z z b B b b z z B     5.h.h.h.h.^ 5       o y [ i.9.L L J L E / ' [ O.#.*.;.@.^ ) >.h.h.h.h.h.h.h.O.I   . ' ,       b b b b b b v M m z M z Z m ",
"B D Z l b b b z l B b b b b b _   . f.h.h.h.i         g y.h.h.h.h.#.&.4.t.t.y.t.9.9.<.:.-.:.7.h.h.h.h.h.h.h.h.h.6 * ;       +.5.@     b z v b v B C v S l B S l ",
"C c m k z v v n B b b b b b g   ; h.h.h.$.@       ^ h.h.h.4.O.@.8.0.6.*.O.| / ] W / _ o.} _ ^ Q | 4.h.h.h.h._     o 4 4 .     = y.$.;   b k B z B C B b C C B C ",
"B B C v z z l l k l l k k ^   < h.h.d.h.J     2 h.h.h.q .           4 L @.h.h.h.h.h.h.9.w.d.h.h.h.h.h.h.y.#   6 2.h.h.h.h.i.      f k k b z b b v v v m B B B B ",
"b z l v k k k k k k k k b   * h.h.*.    .   K h.h.<.    2 I ! } Q a +   o @.h.h.h.h.h.h.h.h.h.h.h.h.h.h.    h.h.h.h.h.h.+.      e   ( z b b b v b B v z b v v v ",
"b B F k b z z z z z z b     h.h.X.        _ h.h.h.    1.h.h.h.h.h.h.h.6.O   ( h.h.h.h.h.h.h.h.h.h.h.h.    <.h.h.h.h.h.+.    X   h.O ; b B z b v Z z B G k b v v ",
"C Z z b v b b b v v x K   +.h.^         *.h.h.i.    h.h.h.h.h.h.h.h.h.h.h.+   h.h.h.h.h.h.h.h.h.h.h.$   h.h.h.h.h.h.h.i     .   h.`   B D l b C n C C A z v n C ",
"z z b b B v b v C C B   = h.h.# p a 2 5.h.h.h.#   h.h.h.h.h.h.h.h.h.h.h.h.5.  K h.h.h.h.h.h.h.h.h.h.  K h.h.h.h.h.h.h.h.0     _ h.|   C C c B C C B F l b B b z ",
"Z z C C C B v v C C '   X.h.h.h.h.h.h.h.h.h. .  ^ h.h.h.h.h.h.h.h.h.h.h.h.h.. = h.h.h.h.h.h.h.h.h.h.  h.h.h.h.h.h.h.h.h.h.h.h.h.h.I   C C B B C C m z b v B C Z ",
"b B C C C C B v B C 1   h.h.h.h.h.h.h.h.h.h.i   h.h.h.h.h.h.h.h.h.h.h.h.h.h.6   h.h.h.h.h.h.h.h.h.  0 h.h.h.h.h.h.h.h.h.h.h.h.h.h.5   B B v B B B C D k b v v v ",
"b n C C M B C z C C   r h.h.h.h.h.h.h.h.h.h., , h.h.h.^ W | h.h.h.h.h.h.h.h.g   h.h.h.h.h.h.h.h.h.  s h.h.h.h.h.h.h.h.h.h.h.h.h.h.    g C B b b B C z b b b b b ",
"x C B M M B C z Z +.  h.h.h.h.h.h.h.h.h.h.h.* i h.h.#         p.h.h.h.h.h.h.g   h.h.h.h.h.h.h.h.h.  8 h.h.h.h.h.h.h.h.h.h.h.h.h.h.  *   z z z b b b b b b b b b ",
"b n C M m C M l M f   h.h.h.h.h.h.h.h.h.h.h.@ i h.h.  . . .   4 h.h.h.h.h.h.I   h.h.h.h.h.h.h.h.h.1   h.h.h.h.h.h.h.h.h.h.h.h.h.  5 '   j l k k k k l z B b b b ",
"b l N n M C z v m <   h.h.h.h.h.h.h.h.h.h.h.  , h.h.  . .     >.h.h.h.h.h.h.w   h.h.h.h.h.h.h.h.h.h.  6 h.h.h.h.h.h.h.h.h.h.y.o   h.(   B k k l k k k l b v v b ",
"b z M k N n l v z   5 h.h.h.h.h.h.h.h.h.h.h.o   d.h.        X.h.h.h.h.h.h.h.  5 h.h.h.h.h.h.h.h.h.h.0   o a ` #.+.| d 2 * .     r h.'   x l z z z z b C B B v v ",
"b b j v j l b v v   h.h.h.h.h.h.h.h.h.h.h.h.h.. o h.h.0 I h.h.h.h.h.h.h.h.7   <.h.h.h.h.h.h.h.h.h.h.h.h.;             * 0 7 #     0 ^   B C C C n B B C B C Z B ",
"C B b b b b v v v   h.h.h.h.h.h.h.h.h.h.h.h.h.h.    X.h.h.h.h.h.h.h.h.h.p   d h.h.h.h.h.h.h.h.h.h.h.h.h.h.h.h..   6 h.h.h.h.h.h./       +.C B B C B B m C D c G ",
"C b B C v b C Z {   h.h.h.h.h.h.h.h.h.h.h.h.h.h.h.h.    r ` e.h.h.i.^ o   J h.h.h.h.h.h.h.h.h.h.h.h.h.h.h.h.h   6 h.h.h.h.h.h.h.h.h.2   b b C C C b B B n C G z ",
"C v C C v C C C L   h.h.h.h.h.h.h.h.h.h.h.h.h.h.h.h.8.5                 h.h.h.h.h.h.h.h.h.h.h.h.h.h.h.h.h.W   2 h.h.h.h.| | i.h.h.h.h.i   { D C C v b C z z C Z ",
"C B C B z C B B 6 . h.h.h.h.h.h.h.h.h.h.h.h.h.h.h.h.h.h.h.h.W p e 7 I h.h.h.h.h.h.h.h.h.h.h.h.h.h.h.h.| o   $ h.h.h.7         . ] h.h.h.1   B B v j l C Z k l C ",
"b B D D j m S b - , h.h.h.h.h.h.h.h.h.h.h.h.h.h.h.h.h.h.h.h.h.h.h.h.h.h.h.h.h.h.h.h.h.h.h.h.h.h.h.e         a.h.h.;   a d.0.} +   p h.h.h.  % k k z k C C b z b ",
"b z Z z k k B H . e h.h.h.h.h.h.h.h.h.h.h.h.h.h.h.h.h.h.h.h.h.h.h.h.h.h.h.h.h.*                 = d +.+.  d h.h.g   $ h.h.h.h.h.d   d.h.h.a   b v v l Z v b b v ",
"B C b z k k k k   s h.h.h.h.h.h.h.h.h.h.h.h.h.h.h.h.h.h.h.h.h.h.h.h.h.h.h.h.h.h.h.h.h.h.h.h.h.h.h.h.h.X   h.h.d.    i 9. .h.h.h.h.  a h.h.]   b C C C v b v v B ",
"b C b b b l j j   I h.h.h.h.h.h.h.h.h.h.h.h.h.h.h.h.h.h.h.h.h.h.h.h.h.h.h.w.h.h.h.h.w.<.h.[ U Q i.h.p   p h.h.7   o     d     5 ^     h.h.+.  b v C C n B v B B ",
"C n v b b b B z   ^ h.h.h.h.h.h.h.h.h.h.h.h.h.h.h.h.h.h.h.h.h.h.h.h.h.h.U P P L J J J J U ' <.h.h.y.    5.h.h.  + h.  r h.  ...   9   *.h.1.  b D B b B n B B m ",
"m z b b b z j z   ] h.h.h.h.h.h.h.h.h.h.h.h.h.h.h.h.h.h.h.h.h.h.h.h.h.h.P Y Q *.w.i.p.h.h.h.h.w.h.g   . h.h.^   -.h.  h.h.. h.r + h.  I h.y.  b m B C z m B z m ",
"b b b b v b N m   ..h.h.h.h.h.h.h.h.h.h.h.h.h.h.h.h.h.h.h.h.h.h.h.h.h.h.h.h.h.L L / _ ` ) ~ h.X.h.5   e h.h.i   -.<.o I <.* 8.p 5 h.$ 0 h.1.  b k C B b b b v z ",
"v v b b b b m C   ( h.h.h.h.h.h.h.h.h.h.h.h.h.h.h.h.h.h.h.h.h.h.h.h.h.h.h.h.h.h.t.*.+.o.[ o.9.h.h.;   ~ h.h.2   - ; 3 5 ; 2 * ; > +   * h.|   B B z k z v v v b ",
"B B v b b B x b   I h.h.h.h.h.h.h.h.h.h.h.h.h.h.h.h.h.h.h.h.h.h.h.h.h.h.h.h.h.h.h.h.h.h.h.h.h.h.h.7   -.h.h.. - h.h.h.h.h.h.h.h.h.h.= X h.K   b b C C C B B Z C ",
"B C B v b b b v   8 h.h.h.h.h.h.h.h.h.h.h.h.h.h.h.h.h.h.h.h.h.h.h.h.h.h.h.h.L R / ] [ [  . .h.h.y.I   +.h.h.  % h.h.h.h.h.h.h.h.h.h.+ = h., + B l j V B z B C m ",
"B b b v v b b b 6   h.h.h.h.h.h.h.h.h.h.h.h.h.h.h.h.h.h.h.h.h.h.h.h.h.h.h.i.2.2.%.%.%.%.*.<.:.-.d.<.  I h.h.  @ h.h.h.h.h.h.h.h.h.h.  i h.  a z k D B b Z Z C B ",
"B B C C b b b b I   h.h.h.h.h.h.h.h.h.h.h.h.h.h.h.h.h.h.h.h.h.h.h.h.h.h.h.h.h.h.h.h.h.h.h.h.h.h.h.h.  < h.h.. o h.h.h.h.h.h.h.h.h.X.  ..$.  b v Z c x D Z C B C ",
"B b B B b b z z b   h.h.h.h.h.h.h.h.h.h.h.h.h.h.h.h.h.h.h.h.h.h.h.h.h.h.h.h.h.h.h.h.h.h.h.h.h.h.h.h.7   h.h.. o h.h.h.h.h.h.h.h.h.5   h.i   b z l z b C B C C B ",
"B v B v b l j j b   y h.h.h i.h.h.h.h.h.h.h.h.h.h.h.h.h.h.h.h.h.h.h.h.h.h.h.h.h.h.h.h.h.h.h.h.h.h.h.K   <.h.* o h.h.h.h.h.h.h.h.h.  p h.  7 b b z A C C B B C k ",
"b v v b b b v z z ; . h.h.' +.h.h.h.h.h.h.h.h.h.h.h.h.h.h.h.h.h.h.h.h.h.h.h.h.h.h.h.h.h.h.h.h.h.h.h.R   +.h.* o h.h.h.h.h.h.h.h.a   d.d.  ! v b b b D C z Z z b ",
"b v b b v v B C v K   i.h.h.U h.h.h.h.h.h.h.h.h.h.h.h.h.h.h.h.h.h.h.h.h.h.h.h.h.h.h.h.h.h.h.h.h.h.h.W   X.h.. o h.h.h.h.h.h.h.h.  ; h.|   b v v v v v v b Z v b ",
"b v v v v B C B n B   ^ h.h.I 2.h._ +.h.h.<.W h.h.h.h.h.h.h.h.h.h.h.h.h.h.h.h.h.h.h.h.h.h.h.h.h.h.h._   | h.* + h.h.h.h.h.h.h.<.  I h.g   B C n b n B v b v b b ",
"b v B C C C C v B C   3 h.h.6.U h.#./ h.h.h...h.h.h.h.h.h.h.h.h.h.h.h.h.h.h.h.h.h.h.h.h.h.h.h.h.h.h._   | h.  * h.h.h.h.h.h.h._   -.h.a   n C B B C B v b b b b ",
"b b Z C B n B v B Z 0   h.h.h.~ -.i.h h.h.h.h._ o.h.h.h.h.h.h.h.h.h.h.h.h.h.h.h.h.h.h.h.h.h.h.h.h.h._   X.h.  6 h.h.h.h.h.h.h.K   1.h.!   b n B B B v v b v b b ",
"b x Z B Z n b v F C |   X.h.h.i.h h.L 2.h.h.h.h.Y >.h.h.h.h.h.h.w.$. .X.$.i.h.h.h.h.h.h.h.h.h.h.h.h.W   @.h.  g h.h.h.h.h.h.h.e   h.h.*.  X.Z C z B C v b b b v ",
"b b z b F z b b B z z   w h.h.h.h./ / | h.h.h.h.h.J d.h.h.h.h.h.t.:.@. .) U Q :.h.h.h.h.h.h.h.h.h.h.g   h.5.  W h.h.h.h.h.h.h.p   h.h.h.  a B b c C b b b b v B ",
"z B D n v z b v b b b 5   h.h.h.h.U Q P h.h.h.h.h.$./ h.h.h.h.h.h.h.h.9.%.$.R U ) h.h.h.h.h.h.h.h.h.1   h.`   $.h.h.h.h.h.h.h.h   h.h.h.5 + B b B B v b b v Z D ",
"B Z z j v b b b b b b |   ..h.h.h.@.R Y &.h.h.h.h.h.J h.h.h.h.h.h.h.:.O.X.[ ~ U Y P *.h.h.h.h.h.h.h.  7 h.i   h.h.h.h.h.h.h.h.]   $.h.h.!   Z x v B v b v B Z z ",
"C c z B Z B v b b b b b   5 h.h.h.h.P Q Q h.h.h.h.h.Q y.h.h.h.h.h.h.h.h.h.h.h.i._ U P -.h.h.h.h.h.$.  ] h.* + f R | i.h.h.h.h.h.  a h.h.X.  B B v v b b v B C B ",
"B C C C Z A z b b b b b r   h.h.h.h.[ Q U 9.h.h.h.h.' 9.h.h.h.h.h.h.h.d.| / | 2.h.:.I J <.h.h.h.h.r   h.h.  O g e i     ..h.h.h.=   h.h.<.  b b v b b b v C C C ",
"B B z j j k z b b b b b B   K h.h.h.>.U E ] h.h.h.h.` 6.h.h.h.h.h.h.h.h.h.9.X.J R d.h. .h y.h.h.h.  9 h.i.  R h.h.h.h.h.  0 h.h.I   -.h.1.  b b b b v v v B C C ",
"m B B v v v b B b b b v C &   h.h.h.h.U Q P h.h.h.h.' <.h.h.h.h.h.h.h.h.h.h.h.h.o.h *.h.h.8.h.h.$.  ..h...  *.h.h.h.h.h.h.= h.h.*.  I h.0.  b b z l l z b v v n ",
"B C B D C v b b b b b b C |   } h.h.h.} R R X.h.h.h.$.[ h.h.h.h.h.h.h.h.h.h.h.h.h.9.J _ h.h.h.h.d   h.h.}   f.h.h.h.h.h.h.h.  | h.  a h.0.  b b k k k z B v B B ",
"n C F Z Z v b v b b b b z n   + h.h.h.6.L p.J h.h.h.h.P <.h.h.h.h.h.6.1 ; a $.h.h.h.p.L Q h.h.h., $ h.h./   h.h.h.h.h.h.h.h.h.  i.  J h.0.  b b z z b b b v C C ",
"C z k m Z v b v b b b b b v ^   ..h.h.h.P t.@.+.h.h.h.h.P 6.h.h.h.h.h.h.h.e     K h.h.h.W L i.h.  r h.h.W   X.] } ] ' ` ^ I K . .   ' h.8.  b b b v b b b c Z B ",
"C C b v l n v v z z z B b v B   X h.h.h.&./ h.J h.h.h.h.h.U 5.h.h.h.h.h.h.h.h.h.#   | h.h.+.U h.  s h.h.I   o @   X %   -   0 g 2   8.h.3.  b b m k b b b b z D ",
"A n v z l k k k k k k l b b v |   ^ h.h.h./ } R h.h.h.h.h.h.U <.h.h.h.h.h.h.h.h.h.$.  4 h.h.h.y.  g h.h.!   h.h.o t.h.  h.% e.h.i   h.h.O.  b b v G k b v b b z ",
"z z b l k l k k k l k z b b b b $   h.h.h.h.U Q U h.h.h.h.h.h.U @.h.h.h.h.h.h.h.h.h.h.0   h.h.5.  K h.h.|   / h.  | h.  h.$ | g.  0 h.h.+.  v B C C n C b v B b ",
"B B b b z l k k l l v v b b b z b   7 h.h.h.y.L _ U R &.h.h.h.h./ _ h.h.h.h.h.h.h.h.h.h.!   e.y.  J h.h.X.    `     @   h.@ w ^   #.h.h.K   n C C Z C n z b b b ",
"b v b b b b v v v l k k k k l m D i   X.h.h.h.4.U h.t.[ L :.h.h.h.h.L 8.h.h.h.h.h.h.h.h.h.X.  _   K h.h.h.    d 2.>.! - 2       o h.h.h.5 o B B B v z b b b b b ",
"b b B z b v v v v z z z l k z b b B     h.h.h.h.*.U h.h.s.] ~ d.h.h.6.J :.h.h.h.h.h.h.h.h.h.o.    a h.h.h.5   *.h.h.h.h.i.' a   o.h.h.h.  w Z j b b b v b b b b ",
"b b n v v v B C z v b b b b B b b v b   # h.h.h.h.2.h -.h.h.h.h h.h.h.h./ <.h.h.h.h.h.h.h.h.h.u   > h.h.h.h.    @.h.h.h.h...  : h.h.h.'   b B k B b b B B z b b ",
"b b B C C B B B A G z v b b v v b j D ..  1 h.h.h.h.d./ U :.h.i.L / i.h.h.*.h.h.h.h.h.h.h.h.h.h..   h.h.h.h.a.o     @ $     . h.h.h.h.  $ Z B l c C C Z c z b b ",
"b z C C C C B Z C m z b b b z z b b b b |   $ h.h.h.h.h.w./ h [ _ E L X.h.h.h.h.h.h.h.h.h.h.h.h.|   _ h.h.h.h.h.] 7 * + < P h.h.h.h.p   b x C b B C C A k b b b ",
"b B B C C C C V C M v z k j k j z b b b b b     @.h.h.h.h.h.w.[ P Y Q R P  .w.h.h.h.h.h.h.h.h.h.d.=   h.h.h.h.h.h.h.h.h.h.h.h.h.h.+.  g Z B B B B B C n Z Z Z z ",
"B C Z B C C C B S H l z j j j j j b b b z v b @   < 0.h.h.h.h.h.h.$.~ U R R U R ~ P J Q  .:.a.h.h.~ . O h.h.h.h.h.h.h.h.h.h.h.h.L   = C C B C C B B B C B Z z v ",
"C B B G v z C A m k b b b B z v v b k z Z C B C I     2 2.h.h.h.h.h.h.t.+.Q U R R / w.2.o._ P J R U Q     R h.h.h.h.h.h.h.h.5.;   ; v C C C C C v B C B V z B b ",
"C C n B G Z z z v b B b b b b v b k Z D C B C B C B e     > +.h.h.h.h.h.h.h.i.$.` P L | 9.h.h.h.h.h.h.<.*     * p K I K 0 .   O b b b v b c z z z b v v v B b b ",
"B Z c z n C A z z b b b b b b b l k k j l D B B B b C v 9     o R h.h.h.h.h.h.h.h.h.6.o./ h L L P J h.h.h.+.7 @           7 b b b b b b b j j j j z b b b x b b ",
"C H j z b z z z v b b v v b b b k l k k A c n Z l D C j A b b       7 +.h.h.h.h.h.h.h.h.h.h.h.h.h.h.h.h.h.h.h.h.h.@   4 b b B b b b b B b b k l b B b b b b b b ",
"D A j B b b z k k k k k k k z v k k k k k j S z j l j j k n b b ;         i *.h.h.h.h.h.h.h.h.h.h.h.h...1.h.8.J     ^ b b b b b b b b b b b b b z l z b b b b b ",
"b l l b b b z k k k j k k k j z n j k k k l z k k k k k b z z z b b I 7 o     + ..h.h.h.h.h.h.h.h.h.<.            b b b b b b z k z k k z b B k j j j k b b b b ",
"b b b b b b b b n v v z z z b b n v l k k k j k l k z c b l k z b b b v C B ' @   O ] h.h.h.h.h.h.h.p     7 K B Z c z b z b b k k k k k z b b b z z v b z D l b ",
"b b b b b b b b b b b b b z k z v b b v z z z z z b b b B b b b b b b v B C v v o..     0 d g i ,     w b z C B F D k B z b b b v z z B b b B c k b m z Z F j B ",
"x b b b b b b b b b v b z z z z v v v v b b b B b b b b b b b b b b b v C m b b b b ..,           2 b b B A V l S B v S k b B b b b b b x b D c B F V B B n D z ",
"b x b b v B b b z b B F D b b b B v Z D v b H x v v b b x b v v b v b B Z k b b z b b b b b v v b x b x Z D A A Z b B Z z v v z n n z b v A B C S b M C b C Z k ",
"D V x x V C b x Z D Z A C D b B G C D n b D B B F b b b b b b b b b B C b B Z Z Z x b b b b b b B b b b Z B D C Z B C C c b B G G Z z b B B b C B v B b B C C D "
};
