/* XPM */
static char *troll[] = {
/* columns rows colors chars-per-pixel */
"80 80 122 2 ",
"   c #000000",
".  c #060806",
"X  c #080907",
"o  c #0C0D0B",
"O  c #0F100E",
"+  c #10110F",
"@  c #131513",
"#  c #171816",
"$  c #181A17",
"%  c #1B1C1A",
"&  c #1F201E",
"*  c #20211F",
"=  c #232422",
"-  c #282927",
";  c #2C2C2B",
":  c #2F302E",
">  c #30312F",
",  c #343533",
"<  c #373837",
"1  c #383836",
"2  c #3C3D3B",
"3  c #3F403E",
"4  c #41413F",
"5  c #434443",
"6  c #474846",
"7  c #484947",
"8  c #4C4D4C",
"9  c #4F504E",
"0  c #50504F",
"q  c #545453",
"w  c #575856",
"e  c #595957",
"r  c #5B5C5A",
"t  c #605E5C",
"y  c #5F605F",
"u  c #61615F",
"i  c #646563",
"p  c #686867",
"a  c #6C6C6B",
"s  c #6F706F",
"d  c #747372",
"f  c #777877",
"g  c #7D7976",
"h  c #7C7C7B",
"j  c #827E7B",
"k  c #84817F",
"l  c #858482",
"z  c #8A8682",
"x  c #8D8986",
"c  c #8D8C8A",
"v  c #908B87",
"b  c #918D8A",
"n  c #8F908F",
"m  c #94918E",
"M  c #98938F",
"N  c #959492",
"B  c #999693",
"V  c #979897",
"C  c #9B9895",
"Z  c #9D9C9B",
"A  c #A19E9B",
"S  c #9FA09F",
"D  c #A4A19F",
"F  c #A4A3A2",
"G  c #A9A6A4",
"H  c #A7A8A7",
"J  c #ABA9A6",
"K  c #ACACAB",
"L  c #B1AEAB",
"P  c #AFB0AF",
"I  c #B2B0AF",
"U  c #B4B4B3",
"Y  c #B8B6B5",
"T  c #BAB9B6",
"R  c #B7B8B8",
"E  c #BCBBBA",
"W  c #C1BFBD",
"Q  c #C2C1BF",
"!  c #C4C4C3",
"~  c #C8C7C6",
"^  c #C7C8C6",
"/  c #CAC8C6",
"(  c #CCCCCB",
")  c #D0CFCE",
"_  c #D2D0CE",
"`  c #D4D4D3",
"'  c #D8D7D5",
"]  c #D9D8D7",
"[  c #DCDCDB",
"{  c #E0DFDE",
"}  c #DFE0DF",
"|  c #E1E0DF",
" . c #E1E1E0",
".. c #E3E2E1",
"X. c #E4E4E3",
"o. c #E6E5E4",
"O. c #E8E7E6",
"+. c #E7E8E7",
"@. c #E8E9E7",
"#. c #EBEAE9",
"$. c #ECECEB",
"%. c #EFEDEC",
"&. c #EFEFEE",
"*. c #F0F0EF",
"=. c gray94",
"-. c #F1F1F1",
";. c #F2F1F0",
":. c #F3F3F2",
">. c #F3F4F4",
",. c #F4F4F4",
"<. c #F6F6F6",
"1. c gray97",
"2. c #F8F7F7",
"3. c #F7F8F7",
"4. c #F8F8F7",
"5. c #F8F8F8",
"6. c #FBF9F9",
"7. c #FBFBFB",
"8. c #FCFCFB",
"9. c #FCFBFC",
"0. c #FDFDFD",
"q. c white",
/* pixels */
"q.q.q.q.q.q.q.q.q.q.q.q.q.q.q.q.q.q.q.q.q.q.q.q.q.q.q.q.q.q.q.q.q.q.q.q.q.q.q.q.q.q.q.q.q.q.q.q.q.q.q.q.q.q.q.q.q.q.q.q.q.q.q.q.q.q.q.q.q.q.q.q.q.q.q.q.q.q.q.q.",
"q.q.q.q.q.q.q.q.q.q.q.q.q.q.q.q.q.q.q.q.q.q.q.q.q.q.q.q.q.q.` F S Z H U K F F Z H I U ^ q.q.q.q.q.q.q.q.q.q.q.q.q.q.q.q.q.q.q.q.q.q.q.q.q.q.q.q.q.q.q.q.q.q.q.q.",
"q.q.q.q.q.q.q.q.q.q.q.q.q.q.q.q.q.q.q.q.q.q.q.q.q.7.n ,             . X .                   O 9 K q.q.q.q.q.q.q.q.q.q.q.q.q.q.q.q.q.q.q.q.q.q.q.q.q.q.q.q.q.q.q.",
"q.q.q.q.q.q.q.q.q.q.q.q.q.q.q.q.q.q.q.q.q.q.q.' <     * 7 c W ' [ [ ' _ _ ` ' [ ` ` ~ I l r ;       7 ~ q.q.q.q.q.q.q.q.q.q.q.q.q.q.q.q.q.q.q.q.q.q.q.q.q.q.q.q.",
"q.q.q.q.q.q.q.q.q.q.q.q.q.q.q.q.q.q.q.q.q.7.1     p G W q.q.7.7.q.q.q.q.q.q.q.q.q.q.q.q.q.q.q.7.! q     o l &.q.q.q.q.q.q.q.q.q.q.q.q.q.q.q.q.q.q.q.q.q.q.q.q.q.",
"q.q.q.q.q.q.q.q.q.q.q.q.q.q.q.q.q.q.q.q.Z     0 F M x x z b v M C N x C C A D D F J J D D N q.q.q.~ W p       X 5 f F ` q.q.q.q.q.q.q.q.q.q.q.q.q.q.q.q.q.q.q.q.",
"q.q.q.q.q.q.q.q.q.q.q.q.q.q.q.q.q.q.q.1   * U o.| &.7.q.q._ C T &.q.q.q.q.7.7.q.q.q.q.q.q.,.q.q.( ;                       # f  .q.q.q.q.q.q.q.q.q.q.q.q.q.q.q.q.",
"q.q.q.q.q.q.q.q.q.q.q.q.q.q.q.q.q.7.    F q.q.q.q.q.q.E d q 1 O   1 W [ q.q.q.q.q.q.q.q.q.q.q.q.J u e d x V b j t %   . o       = ` q.q.q.q.q.q.q.q.q.q.q.q.q.q.",
"q.q.q.q.q.q.q.q.q.q.q.q.q.q.q.q. .    | q.q.q.q.Z 6       X i K <.O.z z k z M A J L Q / ` ` / C D ' 7.q.q.q.q.q.q.W c   . K ,       E q.q.q.q.q.q.q.q.q.q.q.q.q.",
"q.q.q.q.q.q.q.q.q.q.q.q.q.q.q.F   . 9.q.q.q.p         f -.q.q.q.q.~ _ | *.-.-.*.#.O.] ' ' ' X.q.q.q.q.q.q.q.q.q.7 = ;       / [ #      .q.q.q.q.q.q.q.q.q.q.q.q.",
"q.q.q.q.q.q.q.q.q.q.q.q.q.q.h   ; q.q.q./ $       V q.q.q. .! ~ o.#. .` Q U Z K N Z G E I F C N I  .q.q.q.q.D     o 4 3 .     = -.( ;   <.q.q.q.q.q.q.q.q.q.q.q.",
"q.q.q.q.q.q.q.q.q.q.q.q.q.Z   < q.q.4.F k     2 q.q.q.q .           4 z ! q.q.q.q.q.2.#.@.7.q.q.q.q.q.q.-.#   6 [ q.q.q.q.<.      f q.q.3.q.q.q.q.q.q.q.q.q.q.q.",
"q.q.q.q.q.q.q.q.q.q.q.q.`   * q.q.`     .   h q.q.]     1 c V K C a @   o ^ q.q.q.q.q.q.q.q.q.q.q.q.q.(     ^ q.q.q.q.q.~       r   Z q.q.q.q.q.q.q.q.q.q.q.q.q.",
"q.q.q.q.q.q.q.q.q.q.q.q.    q.q.E         F q.q.`     [ q.q.q.q.q.q.q.[ o   Z q.q.q.q.q.q.q.q.q.q.q.q.    ] q.q.q.q.q.~     .   q.O ; q.q.q.q.q.q.q.q.q.q.q.q.q.",
"q.q.q.q.q.q.q.q.q.q.q.l   ! q.V         ` q.q.<.    q.q.q.7.q.q.q.q.q.q.q.@   q.q.q.q.q.q.q.q.q.q.q.$   ~ q.q.q.q.q.q.u   .     q.F   q.q.q.q.q.q.q.q.q.q.q.q.q.",
"q.q.q.q.q.q.q.q.q.q.q.  = q.p $ a a 2 } q.q.q.$   q.q.q.q.q.q.q.q.q.q.q.q.|   l q.7.q.q.q.q.q.q.q.K   l q.7.q.q.q.q.q.q.0     F q.U   q.q.q.q.q.q.q.q.q.q.q.q.q.",
"q.q.q.q.q.q.q.q.q.q.H   E -.&.q.q.q.q.q.q.q.U   Z q.q.q.9.q.q.q.q.q.q.q.q.q.X - q.7.q.q.q.q.q.q.q.1   q.q.q.q.q.q.q.q.q.q.q.q.q.q.c   q.q.q.q.q.q.q.q.q.q.q.q.q.",
"q.q.q.q.q.q.q.q.q.q.1   q.q.q.q.q.q.q.q.q.q.i   q.q.q.q.q.q.q.q.q.q.q.q.q.q.8   q.q.q.q.q.q.q.q.q.  q q.q.q.q.q.q.q.q.q.q.q.q.q.q.5   q.q.q.q.q.q.q.q.q.q.q.q.q.",
"q.q.q.q.q.q.q.q.q.q.  r q.q.q.q.q.q.q.q.q.q., , q.q.q.Z c U q.q.q.q.q.q.q.q.f   4.q.q.q.q.q.q.q.q.  a q.q.q.q.q.q.q.q.q.q.q.q.q.q.    f q.q.q.q.q.q.q.q.q.q.q.q.",
"q.q.q.q.q.q.q.q.q.!   I q.q.q.q.q.q.q.q.q.q.= i q.q.#         3.q.q.q.q.q.q.h   X.q.q.q.q.q.q.q.q.  8 q.q.q.q.q.q.q.q.q.q.q.9.q.c   =   q.q.q.q.q.q.q.q.q.q.q.q.",
"q.q.q.q.q.q.q.q.q.f   8.q.q.q.q.q.q.q.{ ] ' @ i q.q.  . . .   2 q.q.q.q.q.q.l   4.q.q.q.q.q.q.q.q.<   q.q.q.q.q.q.q.q.q.q.q.q.q.  5 J   q.q.q.q.q.q.q.q.q.q.q.q.",
"q.q.q.q.q.q.q.q.q.<   q.q.q.q.q.8.q.q.! M q   , q.`   . .     ' q.q.q.q.q.q.r   q.q.q.q.q.q.q.q.q.K   7 q.q.q.q.q.q.q.q.q.q.-.X   q.S   ' q.q.q.q.q.q.q.q.q.q.q.",
"q.q.q.q.q.q.q.q.q.  5 q.q.q.q.q.q.q.! A j 5 o   7.q.        E q.7.q.q.q.q.q.  5 q.q.q.q.q.q.q.q.q.q.q   o a H / ! U d 2 = .     r q.K   ^ q.q.q.q.q.q.q.q.q.q.q.",
"q.q.q.q.q.q.q.q.q.  h q.q.q.q.q.*.z B L / { D . o q.! q c q.q.q.q.q.q.q.q.8   ] q.q.q.q.q.q.q.q.q.q.q.U ;             = q 8 $     q Z   ( q.q.q.q.q.q.q.q.q.q.q.",
"q.q.q.q.q.q.q.q.]   P q.q.q.q.7.<.q.q.q.q.J b b     E q.q.q.q.q.q.q.q.q.p   d q.q.q.q.q.q.q.q.q.q.q.q.q.q.q.q.    7 q.q.q.q.q.q.Z       ! q.q.q.q.q.q.q.q.q.q.q.",
"q.q.q.q.q.q.q.q.K   X.q.q.q.q.q.q.q.q.q.] j o.q.q.q     r H $.q.q.-.Z o   h q.q.q.q.q.q.q.q.q.q.q.q.q.q.q.q.k   7 q.q.q.q.q.q.q.q.q.2   1 q.q.q.q.q.q.q.q.q.q.q.",
"q.q.q.q.q.q.q.q.l   q.q.q.q.q.q.q.q.q.q.c ] q.q.q.q.X.6                 U q.q.q.q.q.q.q.q.q.q.q.q.q.q.q.q.n   2 q.q.q.$.U U -.q.q.q.q.i   P q.q.q.q.q.q.q.q.q.q.",
"q.q.q.q.q.q.q.q.7 . q.q.q.q.q.q.q.q.q.8.#.q.7.q.q.q.q.q.q.E N p w 8 c q.q.q.q.q.q.q.q.q.q.q.q.q.q.q.q.P O   % q.q.q.8         . K q.7.q.1   &.q.q.q.q.q.q.q.q.q.",
"q.q.q.q.q.q.q.q.- < q.q.q.q.q.q.q.q.q.q.q.q.q.q.q.q.q.q.q.q.q.q.q.q.q.q.q.q.q.q.q.q.q.q.q.q.q.q.K w         <.q.q.;   a 7.X.U @   a q.q.q.  % q.q.q.q.q.q.q.q.q.",
"q.q.q.q.q.q.q.q.  w q.q.q.q.q.q.q.q.q.q.q.q.q.q.q.q.q.q.q.q.q.q.q.q.q.q.q.q.] =                 = f ~ !   d q.q.f   % q.q.q.q.q.d   <.q.q.a   7.q.q.q.q.q.q.q.q.",
"q.q.q.q.q.q.q.q.  d q.q.q.q.q.q.q.q.q.q.q.q.q.q.q.q.q.q.q.q.q.q.q.q.q.q.q.q.q.q.q.q.q.q.q.q.q.q.q.q.q..   q.q.7.    p  .U q.q.q.7.  a q.q.K   -.q.q.q.q.q.q.q.q.",
"q.q.q.q.q.q.q.q.  c q.q.q.q.q.q.q.q.q.q.q.q.q.q.q.q.q.q.q.q.q.q.q.q.q.q.` $.7.q.q.q.$.] ~ K b N >.q.a   p q.q.8   o     d     5 Z     q.q.~   ! q.q.q.q.q.q.q.q.",
"q.q.q.q.q.q.q.q.  Z q.q.q.q.q.q.q.q.q.q.q.q.q.q.q.q.q.q.q.q.q.q.q.q.q.q.b x x z j k k k z L [ q.q.-.     .q.q.  O q.  r q.  E .   8   ` q.[   K q.q.q.q.q.q.q.q.",
"q.q.q.q.q.q.q.q.  K q.q.q.q.q.q.q.q.q.q.q.q.q.q.q.q.q.q.q.q.q.q.q.q.q.q.l b B ` &.<.6.q.q.7.q.&.q.f   . q.q.Z   ' q.  q.q.  q.r @ q.  c q.-.  K q.q.q.q.q.q.q.q.",
"q.q.q.q.q.q.q.q.  E q.q.q.q.q.q.q.q.q.q.q.q.q.q.q.q.q.q.q.q.q.q.q.q.q.q.-._ J k x A F G D B j T q.6   r q.q.i   ' ] o c ] *  .a 6 q.% q q.[   E q.q.q.q.q.q.q.q.",
"q.q.q.q.q.q.q.q.  Z q.q.q.q.q.q.q.q.q.q.q.q.q.q.q.q.q.q.q.q.q.q.q.q.q.7.q.q.q.q.#.` ! Q L W @.q.q.;   N q.q.2   ; ; 4 5 ; 2 = ; : @   = q.U   &.q.q.q.q.q.q.q.q.",
"q.q.q.q.q.q.q.q.  c q.q.q.q.q.q.q.q.q.q.q.q.q.q.q.q.q.q.q.q.q.q.q.q.q.q.] q.q.q.q.q.q.q.q.q.q.q.q.8   ' q.q.. - q.q.q.q.q.q.q.q.q.q.= o q.k   q.q.q.q.q.q.q.q.q.",
"q.q.q.q.q.q.q.q.  9 q.q.q.8.q.q.q.q.q.q.q.q.q.q.q.q.q.q.q.q.q.q.q.q.q.q.U g z m C K K L Y U Y F ,.l   ~ q.q.  & q.q.q.q.q.q.q.q.q.q.@ = q.< @ q.q.q.q.q.q.q.q.q.",
"q.q.q.q.q.q.q.q.6   q.q.q.q.q.q.q.q.q.q.q.q.q.q.q.q.q.q.q.q.q.q.q.q.q.q.q.-.[ { ) ) ) ( ) [ ` ` 8.[   c q.q.  @ q.q.q.q.q.q.q.q.q.q.  p q.  a q.q.q.q.q.q.q.q.q.",
"q.q.q.q.q.q.q.q.c   7.q.T 7.q.q.q.q.q.q.q.q.q.q.q.q.q.q.q.q.q.q.q.q.q.q.q.q.q.q.q.q.q.q.q.q.q.q.q.q.  , q.q.. o q.q.q.q.q.q.q.q.q.E   E /   ` q.q.q.q.q.q.q.q.q.",
"q.q.q.q.q.q.q.q.]   K q.] G q.q.q. .q.q.q.q.q.q.q.q.q.q.q.q.q.q.q.q.q.q.q.q.8.q.q.q.7.q.6.q.q.q.q.q.8   q.q.. o q.q.q.q.q.q.q.q.q.5   q.u   q.q.q.q.q.q.q.q.q.q.",
"q.q.q.q.q.q.q.q.q.  y q.q.j -.q.q.D q.q.<.q.q.q.q.q.q.q.q.q.q.q.q.q.q.q.q.q.q.q.q.q.q.q.q.q.q.q.q.q.z   ] q.* o q.q.q.q.q.q.7.q.q.  p q.  8 q.q.q.q.q.q.q.q.q.q.",
"q.q.q.q.q.q.q.q.q.;   q.q.J ! q.q.j q.q.W T q.7.8.q.q.q.q.q.q.q.q.q.q.q.q.q.q.q.q.q.q.q.q.q.q.q.q.q.n   ! q.= X q.q.q.q.q.q.q.q.a   <.7.  V q.q.q.q.q.q.q.q.q.q.",
"q.q.q.q.q.q.q.q.q.l   -.q.[ b q.q.b X.q.q.l <.q.q.q.q.q.q.q.q.q.q.q.q.q.q.q.q.q.q.q.q.q.q.q.q.q.q.q.N   E q.. o q.q.q.q.q.q.q.q.  ; q.U   ( q.q.q.q.q.q.q.q.q.q.",
"q.q.q.q.q.q.q.q.q.[   Z q.q.c [ q.G Q q.q.] N q.q.q.q.q.q.q.q.q.q.q.q.q.q.q.q.q.q.q.q.q.q.q.q.q.q.q.F   U q.* @ q.q.q.q.q.q.q.'   n q.f   <.q.q.q.q.q.q.q.q.q.q.",
"q.q.q.q.q.q.q.q.q.q.  3 q.q.| x q./ Z q.q.q.U F q.q.q.q.q.q.q.q.q.q.q.q.8.q.q.q.q.q.q.q.q.q.q.q.q.q.F   U q.  = q.q.q.q.q.q.q.S   ' q.a   7.q.q.q.q.q.q.q.q.q.q.",
"q.q.q.q.q.q.q.q.q.q.q   q.q.q.C ` <.k q.q.q.q.G E q.q.q.q.q.q.7.q.q.q.q.q.q.q.q.q.q.q.q.q.q.q.q.q.q.F   E q.  6 q.q.q.q.q.q.q.l   [ q.V   2.q.q.q.q.q.q.q.q.q.q.",
"q.q.q.q.q.q.q.q.q.q.P   E q.q.<.j q.k [ q.q.q.q.b ' q.q.q.q.q.q.X.( Y E ( -.q.q.q.q.q.q.q.q.q.q.q.q.N   / q.  h q.q.q.q.q.q.q.r   q.q.`   E q.q.q.q.q.q.q.q.q.q.",
"q.q.q.q.q.q.q.q.q.q.q.  q q.q.q.Y A C U q.q.7.q.q.k 7.q.q.q.7.q.*.` ~ T D v B ] q.q.8.q.q.q.q.q.q.q.f   q.[   N q.q.q.q.q.q.q.p   q.q.q.  a q.q.q.q.q.q.q.q.q.q.",
"q.q.q.q.q.q.q.q.q.q.q.5   q.q.q.q.x B v q.q.q.q.q.~ A q.q.q.q.q.q.q.q.O.) ( m v A 8.q.q.q.q.q.q.q.q.1   q.F   ( q.q.q.q.q.q.q.h   <.q.q.5 @ q.q.q.q.q.q.q.q.q.q.",
"q.q.q.q.q.q.q.q.q.q.q.U   E q.q.q.~ b b ) q.q.q.q.q.k q.q.q.q.q.q.q._ Q T U C x m x ' q.q.q.q.q.q.q.  8 q.p   q.q.q.q.q.q.q.q.K   ( q.q.N   q.q.q.q.q.q.q.q.q.q.",
"q.q.q.q.q.q.q.q.q.q.q.q.  3 q.q.q.q.x B B q.q.q.q.q.C &.q.q.q.q.q.8.q.q.q.q.q.2.D v z ` q.8.7.q.q.(   K q.= @ f c U <.q.q.q.q.q.  a q.q.Q   >.q.q.q.q.q.q.q.q.q.",
"q.q.q.q.q.q.q.q.q.q.q.q.r   q.q.q.q.J B v @.q.q.q.q.G o.q.q.q.q.q.q.q.4.U A U | q.` c k [ q.q.q.q.r   q.q.  O h r u     U q.q.q.-   q.q.[   [ q.q.q.q.q.q.q.q.q.",
"q.q.q.q.q.q.q.q.q.q.q.q.X.  l q.q.q.] b M J q.q.q.q.J | q.q.q.q.q.q.q.q.q.X.T k m 7.q.T k -.q.q.q.  8 q.<.  c q.q.q.q./   q q.q.c   ' q.{   [ q.q.q.q.q.q.q.q.q.",
"q.q.q.q.q.q.q.q.q.q.q.q.q.=   q.q.q.q.x B x 8.q.q.q.G [ q.q.q.q.q.q.q.q.q.q.q.q.Q g _ q.q.| q.q./   E q.T   ` q.q.q.q.q.q.= q q.)   c q.X.  [ q.q.q.q.q.q.q.q.q.",
"q.q.q.q.q.q.q.q.q.q.q.q.q.U   K q.q.q.I m m T q.q.q.~ L q.q.q.9.q.7.q.q.q.q.q.q.q. .j J q.q.q.q.d   q.q.K   q.q.q.q.q.q.q.q.  K q.  a q.#.   .q.q.q.q.q.q.q.q.q.",
"q.q.q.q.q.q.q.q.q.q.q.q.q.q.  @ q.q.q.| l 3.k q.q.q.q.x ' q.q.q.q.q.{ 1 ; a ( q.q.q.<.z N q.q.q.> $ q.q.Z   q.q.q.q.q.q.q.q.q.  <.  k q.o.  #.q.q.q.q.q.q.q.q.q.",
"q.q.q.q.q.q.q.q.q.q.q.q.q.q.Z   E q.q.q.x &.~ ! q.q.q.q.x  .q.q.7.q.q.q.E q     l q.q.q.m l <.q.  r q.q.m   E K K K K H V c l . .   K q.X.  [ q.q.q.q.q.q.q.q.q.",
"q.q.q.q.q.q.q.q.q.q.q.q.q.q.q.  . q.q.q._ A q.k q.q.q.q.q.c  .q.q.8.q.q.q.q.q.U #   U q.q.! b q.  s q.q.N   o #   X &   -   q h 2   X.q.[   [ q.q.q.q.q.q.q.q.q.",
"q.q.q.q.q.q.q.q.q.q.q.q.q.q.q.U   Z q.q.q.A I m T q.q.q.q.q.c [ q.q.q.q.q.q.q.q.q.(   2 q.q.q.*.  h q.q.V   q.q.o &.q.  q.% &.q.i   q.q.!   ] q.q.q.q.q.q.q.q.q.",
"q.q.q.q.q.q.q.q.q.q.q.q.q.q.q.q.%   q.q.q.q.b B x W q.q.q.q.q.x ~ q.q.q.q.q.q.q.q.q.q.q   q.q.X.  l q.q.I   S q.  U q.  q.$ U q.  q q.q.!   #.q.q.q.q.q.q.q.q.q.",
"q.q.q.q.q.q.q.q.q.q.q.q.q.q.q.q. .  7 q.q.q.-.z D x m ( q.q.q.q.Z G q.q.q.q.q.q.q.q.q.q.V   #.-.  k q.q.E     H     #   q.# q Z   ^ q.q.l   q.q.q.q.q.q.q.q.q.q.",
"q.q.q.q.q.q.q.q.q.q.q.q.q.q.q.q.q.p   E q.q.q.[ x q.-.L z ' q.q.q.Y l O.q.7.q.q.q.q.q.8.q.E   F   l q.q.q.    d [ ] V - 1       o q.q.q.5 o q.q.q.q.q.q.q.q.q.q.",
"q.q.q.q.q.q.q.q.q.q.q.q.q.q.q.q.q.q.    q.q.q.q.` b q.q.8.J B 4.q.q.{ k ' q.q.q.q.q.q.q.q.q.E     a q.q.q.5   ` q.q.q.q.<.K a   E q.q.q.  w q.q.q.q.q.q.q.q.q.q.",
"q.q.q.q.q.q.q.q.q.q.q.q.q.q.q.q.q.q. .  $ q.q.q.q.[ j ` q.q.[ j ) q.q.q.C [ q.q.q.q.q.q.q.q.q.r   : q.q.q.q.    ~ q.q.q.q.U   > q.q.q.K   / q.q.q.q.q.q.q.q.q.q.",
"q.q.q.q.q.q.q.q.q.q.q.q.q.q.q.q.q.q.q.E   < q.q.q.q.2.Z v ' q.-.z A <.q.q.` q.q.q.q.q.q.q.q.q.q..   q.q.q.q.7.X     @ &       q.q.q.q.  % q.q.q.q.q.q.q.q.q.q.q.",
"q.q.q.q.q.q.q.q.q.q.q.q.q.q.q.q.q.q.q.q.U   $ q.q.q.q.q.o.Z j L D M x E q.q.q.q.q.7.q.q.q.q.q.q.U   F q.q.q.q.q.K 8 = + < c q.q.q.q.a   #.q.q.q.q.q.q.q.q.q.q.q.",
"q.q.q.q.q.q.q.q.q.q.q.q.q.q.q.q.q.q.q.q.q.`     ~ q.q.q.q.q.&.L x b B m x Y O.q.q.q.q.q.q.q.q.q.7.=   q.q.q.q.q.q.q.q.q.q.q.q.q.q.E   h q.q.q.q.q.q.q.q.q.q.q.q.",
"q.q.q.q.q.q.q.q.q.q.q.q.q.q.q.q.q.q.q.q.q.q.q.#   < X.q.q.q.q.q.q./ C x m m v m B x l B Y ' 4.q.q.C X o q.q.q.q.q.q.q.q.q.q.q.q.l   = q.q.q.q.q.q.q.q.q.q.q.q.q.",
"q.q.q.q.q.q.q.q.q.q.q.q.q.q.q.q.q.q.q.q.q.q.q.q.n     2 | q.q.q.q.q.q.&.! C x m m Z #.{ W G x k b b N     c q.q.q.q.q.q.q.q. .-   ; q.q.q.q.q.q.q.q.q.q.q.q.q.q.",
"q.q.q.q.q.q.q.q.q.q.q.q.q.q.q.q.q.q.q.q.q.q.q.q.q.q.r     ; ! q.q.q.q.q.q.q.-.( J x k I X.q.q.q.q.q.-.[ =     = a h c l 0 .   @ U q.q.q.q.q.q.q.q.q.q.q.q.q.q.q.",
"q.q.q.q.q.q.q.q.q.q.q.q.q.q.q.q.q.q.q.q.q.q.q.q.q.q.q.7.0     o c q.q.q.q.q.q.q.q.q.X.Q A k k z x j q.q.q.Q 8 #           8 [ q.q.q.q.q.q.q.q.q.q.q.q.q.q.q.q.q.",
"q.q.q.q.q.q.q.q.q.q.q.q.q.q.q.q.q.q.q.q.q.q.q.q.q.q.q.q.q.<.5       8 ! q.q.q.q.q.q.q.q.q.q.q.-.-.<.q.q.q.q.q.q.q.#   3 q.q.q.q.q.q.q.q.q.q.q.q.q.q.q.q.q.q.q.q.",
"q.q.q.q.q.q.q.q.q.q.q.q.q.q.q.q.q.q.q.q.q.q.q.q.q.q.q.q.q.q.q.' ;         i ` q.q.q.7.q.q.q.q.q.q.q.q.U [ q.o.h     Z q.q.q.q.q.q.q.q.q.q.q.q.q.q.q.q.q.q.q.q.q.",
"q.q.q.q.q.q.q.q.q.q.q.q.q.q.q.q.q.q.q.q.q.q.q.q.q.q.q.q.q.q.q.q.q.+.c 8 o     @ U q.q.q.q.q.q.q.q.q.]             X.q.q.q.q.q.q.q.q.q.q.q.q.q.q.q.q.q.q.q.q.q.q.",
"q.q.q.q.q.q.q.q.q.q.q.q.q.q.q.q.q.q.q.q.q.q.q.q.q.q.q.q.q.q.q.q.q.q.q.q.q.q.H #   o K q.q.q.q.q.q.q.a     8 l ! q.q.q.q.q.q.q.q.q.q.q.q.q.q.q.q.q.q.q.q.q.q.q.q.",
"q.q.q.q.q.q.q.q.q.q.q.q.q.q.q.q.q.q.q.q.q.q.q.q.q.q.q.q.q.q.q.q.q.q.q.q.q.q.q.q.Q .     q d h i :     r q.q.q.q.q.q.q.q.q.q.q.q.q.q.q.q.q.q.q.q.q.q.q.q.q.q.q.q.",
"q.q.q.q.q.q.q.q.q.q.q.q.q.q.q.q.q.q.q.q.q.q.q.q.q.q.q.q.q.q.q.q.q.q.q.q.q.q.q.q.q.q.R ,           3 { q.q.q.q.q.q.q.q.q.q.q.q.q.q.q.q.q.q.q.q.q.q.q.q.q.q.q.q.q.",
"q.q.q.q.q.q.q.q.q.q.q.q.q.q.q.q.q.q.q.q.q.q.q.q.q.q.q.q.q.q.q.q.q.q.q.q.q.q.q.q.q.q.q.q.q.q.q.q.q.q.q.q.q.q.q.q.q.q.q.q.q.q.q.q.q.q.q.q.q.q.q.q.q.q.q.q.q.q.q.q.",
"q.q.q.q.q.q.q.q.q.q.q.q.q.q.q.q.q.q.q.q.q.q.q.q.q.q.q.q.q.q.q.q.q.q.q.q.q.q.q.q.q.q.q.q.q.q.q.q.q.q.q.q.q.q.q.q.q.q.q.q.q.q.q.q.q.q.q.q.q.q.q.q.q.q.q.q.q.q.q.q."
};
