/* XPM */
static char *wall[] = {
/* columns rows colors chars-per-pixel */
"80 80 111 2 ",
"   c #951E07",
".  c #961F08",
"X  c #962009",
"o  c #99250E",
"O  c #9D2B14",
"+  c #9E311B",
"@  c #B72F0C",
"#  c #B8320E",
"$  c #AD3416",
"%  c #A1321A",
"&  c #A5391F",
"*  c #BA3612",
"=  c #B03A1C",
"-  c #BC3C19",
";  c #9F3520",
":  c #A23720",
">  c #A53921",
",  c #AD3C21",
"<  c #B23F22",
"1  c #BD430E",
"2  c #BE4713",
"3  c #BF4914",
"4  c #BE411E",
"5  c #BF4C19",
"6  c #B44023",
"7  c #BC4423",
"8  c #B65137",
"9  c #B6533A",
"0  c #C1421F",
"q  c #C04C1A",
"w  c #C2511F",
"e  c #C14625",
"r  c #C44B25",
"t  c #C55526",
"y  c #C55826",
"u  c #C95B26",
"i  c #CA5D3D",
"p  c #CB623E",
"a  c #CC6A3E",
"s  c #C2654C",
"d  c #C2684E",
"f  c #D06C4D",
"g  c #D2744E",
"h  c #C66E53",
"j  c #CA6E53",
"k  c #D26F51",
"l  c #CA7156",
"z  c #CA755A",
"x  c #D37454",
"c  c #D57C56",
"v  c #D57658",
"b  c #D67A5A",
"n  c #D87858",
"m  c #D7805A",
"M  c #D8825D",
"N  c #D58267",
"B  c #D6866A",
"V  c #DC8669",
"C  c #D78A6E",
"Z  c #DD8D6D",
"A  c #DE906F",
"S  c #E4997E",
"D  c #E4997F",
"F  c #E49A7F",
"G  c #E49B80",
"H  c #E59B80",
"J  c #E69C82",
"K  c #E69D82",
"L  c #E59F83",
"P  c #E69E85",
"I  c #E79F85",
"U  c #E89F84",
"Y  c #E6A084",
"T  c #E7A085",
"R  c #E7A287",
"E  c #E8A085",
"W  c #E8A387",
"Q  c #E6A588",
"!  c #E7A588",
"~  c #E7A689",
"^  c #E7A78A",
"/  c #E8A48A",
"(  c #E8A58B",
")  c #E9A58B",
"_  c #EAA58A",
"`  c #ECA68A",
"'  c #ECA68B",
"]  c #ECA78B",
"[  c #E9A88B",
"{  c #E8A98E",
"}  c #E8AA8E",
"|  c #E9AB8F",
" . c #EBAB8E",
".. c #E9AC8F",
"X. c #EBAC8E",
"o. c #EBA790",
"O. c #EBAA91",
"+. c #EFAC91",
"@. c #EBAE94",
"#. c #EBAF94",
"$. c #F0AD91",
"%. c #EBB094",
"&. c #EDB194",
"*. c #EEB294",
"=. c #EFB395",
"-. c #EDB39A",
";. c #EEB69A",
":. c #F4B397",
">. c #F3B99B",
",. c #EFB8A0",
"<. c #F7C0A1",
/* pixels */
"t t t t t t t t t t t t c { Q Q Q _ ! %.5 t t t t t t t y t t t y t y 7 6 x U H G S T Q %.5 y y y r y y y y y y t t t y 7 4 b { Q Q _ Q Q &.5 t t t t t y r y y ",
"t t t y t t t t t y t t m #.{ Q Q [ } =.q t t y t y y t t y t t t t y e 0 x _ U K S T X.-.5 t t t y y t y y y t t t t t 7 6 v -.{ Q Q Q X.&.5 t y t y y y y t t ",
"t t t r e y y t r r r r p b x { [ A c m t t t r r t r t y y r r r y y e 0 i v f T K Z c M w t t r e t y t r r t r t y y e 7 i v x X.[ A c m w t t e r y y t r t ",
"t y r e e y y e e e 7 r 7 4 # #.[ x q t t t r 7 7 7 7 r t y 7 e r y y 7 e 7 0 * _ K g q w t t r e 7 y t r e 7 7 7 r y y e e e 7 # %.X.x 5 t t t r e 7 y y r 7 e ",
"y y t e e y y t e e e r e e - %.{ c t t t t r e e e e t t y e e r t u e e e e - Q P c t t y t r 7 e u y r 7 e e 7 t t t e e e e - %.[ m t t t y t 7 e y y r 7 e ",
"e 7 7 e e e e < > : > % < e - %.O.c q y e 7 t t y e e 7 e e e e 7 e e e e < : O &.X.x - 7 t y t e e 7 e 7 r e e e e e e e e 7 e - %.{ x - e e e 7 e e e e 7 e e ",
"e e e 7 e e r 6 : > > > < r - %.{ c w y e e t t y 7 e e e e e 7 e e e r e < : O :.O.x 0 e y t r e e e e r 7 r e e e e e e e e e - #.{ v 4 e e e e e e e e 7 r r ",
"e e 7 6 < 6 < < < < & & , < $ &.{ b q r 7 e r r t e e e e e 6 < 7 e e < 6 < < $ O.Q x 7 7 r t e e e e e 7 r e 6 < 6 e e < < 7 e - &.{ v 4 e e e e e e < 6 7 7 e ",
"e e 6 > & > > 6 r r > > > > O $.{ x 7 e e e e e e e e e 7 r > + 6 e r : : < r 0 ' U f 6 e e 7 e e e r e e e e : > < r r > : < e - *.} v 4 e r e e e e : > 6 e 7 ",
"r r 6 % > > > 6 r r > > > > O -.X.n 0 e e e e e e e r e e r + > 6 r r : > < e - ' K x 0 r e e e r e e e r e r ; > < r r ; : < e - %.} x 0 r e e r e e : : 6 r r ",
": : 6 r e > > > > > > > > > O ' U d + : r e e e r : : < e r > > > > : > > > : o :.X.j % & r e 6 > > e e < : : r r < > % r r < > O *.X.h + + r e < > : r r < > > ",
"> > 6 e e > > > > > > > > % o ' E d O + r e e e e : > 6 r r > > > > > > > & % o &.{ j O + r e 6 > > r e < > : r e < > > 0 0 = + o %.X.h O % r e < > > e r 6 > > ",
"> > , 6 6 > > > > > > & 8 j s U K N d h = 6 < < 6 > > < 6 6 > > > > > > & 8 h s ' E B d h = 6 = > > < < = > & < < , > + n k k j d X.[ B d j = 6 , > > < 6 & > > ",
"> > > > % & > > > > > % j ' U H K K E $.O > & & > > > > > & > > > > > > % j ' E F F K T #.O & & > > > > & & > > > > > O $.U _ O.} ! ! E E #.O & > > > > & & > > ",
"O O O O O O O O O O O o s U H H F F H _ . O O O O O O O O O O O O O O O o s E H F S F F ' X O O O O O O O O O O O O O   { G U _ _ ! Q T F '   O O O O O O O O O ",
":.&.&.&.:.&.&.&.:.:.' ' U H H H K F F F :.:.#.] ] &.:.O.' _ :.#.:.&.&.' ' E K F _ ! Q _ ! :.*.X.' ' -.$.&.:.&.&.:.#.:.&.F H H H F Q Q _ Q E &.:.&.&.$.:.&.&.&.&.",
"} } } } } O.} } {  .U E E U E E U K H F _ ! Y F H } { Q P P @.} { { X.E K T P K O.} } } } } { T U U _ Q Q P Q Q _ Q { X.K K Y E K } } } } } O.} } O.} } X.} } } ",
"c c c c c c c c c b f x k x x f f V K F T Y Y Y Q c c c c x c c c c c x c x c c x x c c c v b k k f { _ _ _ Q Q { A c c x c x c c c c c c c c c c c c c b M b m ",
"t 5 t w q t t 5 w w < 0 0 0 4 7 - f E H S S Y ! %.3 t 5 q t q t t w w w w w w w - 7 q t t - 0 0 7 * #.Q Q Q _ E { c q w w w w w t q t 5 t w w w w w t w t 5 5 5 ",
"t t t t t y t t t u e e e e e e 7 v O._ H S _ *.,.5 t y t t t t t t t y t t y y e e r y y e e e e - >.#.{ Q Q #.-.M w t y y t t t t t t t t t t t y t t y y y y ",
"t t t y t y t r e < u u r e e e e 4 - # _ P g 2 5 y y y t t y y t t y 7 e e e e t y r e e e e e e e - * g { #.1 5 q t y r e e t t e e e e e e e e e e 7 e t y y ",
"t t t y t y y r e e t t r e r e e e e - _ P g t y y y r t t y y t t t e 7 7 e e t t t e e e e e e e e 4 v { #.q y t t t 7 e r t y e e e e e e e e e e e 7 r u y ",
"y t t e r t t t 7 e t r r r e e e e 7 - { _ x 5 r r r t t y e r r r r t r r e e t r e e e < < e e e < = l { #.2 t r r t r r t r t 7 7 r r e e e 7 6 6 e e 7 7 6 ",
"y t t 7 7 t t r e e e e e e e e e e r - &.{ x 7 e 7 e e t y e e 7 e 7 t y r e e 7 e 7 e e : > < e r : % h  .&.- 7 7 e 7 y t t 7 e e e r y y e e = > + e e 6 ; > ",
"t y t e e t y r e e e r r e e e e e r - &.X.x 4 7 r e r y y e e e r e y y r e e e e r r r : > < r r % % h X.@.- e e e e u y t 7 e e e r u u e e < > > 7 r 6 > + ",
"7 e < & : e e e e r : : < e e e e e 7 - _ P x 4 r : : 6 e e e e 6 & ; r e e e e e e < % : r e < : > > % l [ %.- e e e r + & 6 e e e e e e e : : < r r > > 6 r r ",
"e 7 < > > e e e r r : : < r e e r 7 e 4 _ T x 0 r % > 6 e e e r 6 & > r e 7 e e e r 6 > : r r < > > & % h X.*.- e e r r > > < e e e r r e e > > < r 7 > & , r r ",
"6 < < > > e e 0 < < < < < < < e e 6 4 $ _ T f = 6 & & 6 r e < < & & % e e 7 6 6 6 6 , > > < < < > > & % l [ *.$ 6 6 6 6 < 6 < < < < < < e e > > < < 6 > > , 6 6 ",
"> > > > > e e < > : r e < , > e e 6 % O ' E d % > > > 6 7 r : > > > : e e 6 > > > > & > > > > > > > > % j { :.O > % ; & e r < > > & > < e e > > = > > > > > > > ",
"> > > > > r e < > : e e < > > e r = O X  .E s o O > > 6 r r > > & > > r r 6 > > > > & > > > > & > > O o d { *.  O % > > r r < > > > > < r e : > > > > > > > > > ",
"> > > > > > > > > > > > & > > > + l $.' _ Q X.&.<.O > > > % > > & > & & > > > > > > & > > > > & > O <.:.} { Q :.>.z % > & > , > > > > & > > > > > > > > > > > > ",
"% % % % % % % % + + % % % % % % O d E F ! ! Q Q =.o % % % % % % % % % % + % % % % % % % % % % % % o &.Q Q Q Q T _ h O % + % % % % % % % % % % % % % % % % % % % ",
"h h h h h h h h h h h h j d h j d B Q K Q Q T K _ d h h h h h h h h h h h h h l h h h h h h h h h d { U P P P Q } B s h h j h h h h h h l h h h h j h h h h h h ",
"X.X.X.X.X.X.X.X.X.X.X.{ T U E E E E Q Q Q Q Y H F X.X.{ #.X.X.X.X.X.{ X.@.X.{ X.X.X.X.X.X.X. .{ X.X.F F G S S Q Q T U U O.{ X.O.X.{ X.X.X.X.X.{ X.X.X.X.O.O.X.X.",
"@.@.@.@.%.%.%.X._ Q _ Q E K K T T O.#.#.%.#.{ Q _ %.@.@.#.@.%.#.%.#.#.T ! ! ! ! Q Q } #.%.#.#.#.&.&.E _ _ { _ %.&.O._ Q [ Q Q _ ! ! ! X.@.%.@.@.@.%.%.@.@.@.@.@.",
"q 5 5 q q 5 2 g } _ Q Q P H ! 1 q q q q q q 5 5 q q 5 5 5 5 5 r 5 q 1 @.! ! ! ! Q X.x 3 5 5 5 5 3 q q q 5 q q 5 5 5 q 1 Q F K Q ! ! } g 2 5 5 5 3 q q q q 5 5 5 ",
"t t t t t t t m @.X.Q _ E T { q t t t t t t t t t t t y t t t y t t q -.{ [ ! ! X.%.m 5 t y t t y y y t r y t y y t y q O.P T Q _ [ %.m r t y y y y t y t t y t ",
"t y t t t r e p c f } Q Z g c t t t t r y t t r r y t t r r r r t t y c x Z _ { x M a t t t t t r e y y t r r y y t e 5 n f Z _  .g m a t y y t r y t t y r r t ",
"t t y t t e e 7 4 * &.} c q r t y r 7 7 y t r e 7 t t r e e e e r t y - - x { #.2 5 t t t t t r 7 e y y 7 e e y t e e e 4 - x } #.2 w t t t t t y t t t y t 7 e ",
"y y t y t e e e e - %.} c t t y y r e e y y r e 7 y t t e e e e t y u 7 0 x { #.5 t t t y y y r e e y y t 7 e y y t r e e 4 v } #.q t y t t t t y y t y y 7 e 7 ",
"7 e e e e e e e e - &.{ c t y 7 7 e e e e e e y y e e e e e e e < % ; e 4 x { @.q t r e e e e e e e e e e e e e e < : : e < n ' &.- 7 e e 7 y t r e e e e e y y ",
"e e e 7 e e e e e - &.{ c q y 7 e e e e e r r y t e e e e e e e < > : r 0 b { @.q u r e e e e e e e e e e e e r r < > > r 0 n o.#.- e e e e y t r 7 e e e t t y ",
"6 , 6 r e < < 6 e - &.X.b q r < 6 6 e e 6 6 7 r r < < e e e < < , > > < = l { &.6 6 7 7 7 6 6 6 e e < < < r e < < < < < 6 = j O.#.- r 6 < < r r r 7 r < 6 7 r r ",
"& & 6 r r : > 6 e - #.{ x 4 r > : 6 r r ; > 6 e e : > < e r : > > > > > % h X.&.o & 6 e r : > 6 e r : > < e e : : < r r : % h { &.- e < > : e e 7 e 7 ; > 6 e e ",
"> : < r r : > < r - &.{ x e r > > 6 r r ; ; 6 e e > : < r r % > > > > > % j { :.O & 6 t r > > 6 r r ; ; < r r > > < r r : % j #.&.- r 6 > > r e r e e > > 6 r 7 ",
"e r < : > > > > % O &.O.h + > > > > > ; r r 6 > > r e < : : r r < > > > % j X.&.O & > + & > > > > ; r r < : > > > > > % > % d U _ O > : > > > > 6 e e > > > > & ",
"e r < > > > > % % o #.O.s O % > > > > > r r 6 > > r e < > > r r < > > + O d O.:.o + % & > > > > > > r r < > > > > > > > % O d U _ o % % > > > > 6 e r > , > > > ",
"< < < > > > > 9 l s  .{ C h z % > > > > 6 6 > > > < < , > > 6 6 < > + z h C _ { d l 9 & > > > > > , < < < > > > > > > % z h C E Q h z 9 % > > > , 6 6 > > > > > ",
"> > > > & & % h :.X.! ! [ { >.O & & > > > > > > > > > > > > & > & & O >.X.[ ! ! } :.l % > > > & > > > > > > > > > > & O >.{ [ ! _ { :.l % & > > > & > > & & > > ",
"O O O O O O o d { Q ! ! ! ! :.  O O O O O O O O O O O O O O O O O O   *.! ! ! E T } d X O O O O O O O O O O O O O O O   *.! ! ! Q Q [ d o O O O O O O O O O O O ",
":.&.$.-.:.&.:.X.! ! _ ! ! ! ! *.:.X.' _ X.' ' ' _ :.&.&.&.&.*.:.*.:.:.T ! ! ! ! Q Q X.:.&.=.&.&.$.-.:.#.#._ _ &.:.*.:.*.! ! ! ! ! Q Q _ ' ' *.*.%.:.*.' _ @.=.:.",
"{ O.' O.{ { { { { { { { [ X.[ [ { _ K T E U U U K Q Q _ Q Q Q ! } Q { X.{ [ } } } X.} } X.{ X.} O.o.o.] T G F Q ! ! T ! { { [ [ X.{ { T T P X.{ } X.{ P P ! } { ",
"c c c c c m c c c c c c c c c c c c c x c c x x g Q K T _ Q K T A c c c c c c c c c c c c c c c c c v x Z P T T E U K _ c c c c c c c c x g c c c c c c x c c c ",
"q t w w q t q t w w t w w w w t w q w w t 5 t t q T F P Q Q F P g 5 w w w w t w t 5 t t r t w w t t 0 - x { Q G F H F E 2 w w w w w t w w t w t w w 5 t w w w w ",
"t t t t t t y t y t t t t t t t t t t t t t t t q #._ T Q { E O.c t y t t t t t y t t t y y y y t t 7 - b :.@.F F P ! #.q t y y t t y y t y t y t t t t t t t t ",
"7 e r y y 7 e 7 e 7 y t t t t t t t t t t t t t t q 5 g P T 3 q w t t t t t t t 7 e e t y 7 7 r t t e e 4 - # %.{ x q q t t r e e e 7 r t t e e r y t y t t t y ",
"e e r y y e e e e e y y y t t t y y y t t y y y y t t v U _ q y t t y t y t t t e e r t y e e r t t e e e e - %.X.m t t t t t 7 e e 7 t t y e 7 r y y y y y y y ",
"e 7 e t r e e e r r r r r t t r r r y y r e r r r r 3 v P { 4 r t e r r r t t y e e r r e e e r r t < < 7 e - O._ x q r e r e e e r r r r r e e r r r t r r r t ",
"e e e e 7 e e e y y 7 e e e 7 7 e r t t e e e e 7 e - x E _ - e 7 e e e 7 e t y e e e e e e e e 7 r : : 6 7 - _ T k 4 r 7 e e e e y y t 7 e e e 7 7 e 7 7 7 e e ",
"r r e e e r r r y y e r e e e e r r u t 7 e e r r e 4 x T _ - e e e r e e t y y e r e e e e e e e r ; : 6 r - Q Y g 7 7 e e e e e y y r e r e e e r r e e e e e ",
"> ; 6 e r : : < e e ; : 6 e e e e < > ; e r < : ; r < x E _ - e 6 ; > e e e 7 r ; ; < e e e r < > : r e 6 > O *.X.x 4 e e e e r e e e < : ; r e 6 ; ; e e e e e ",
"> > 6 e r : : < e r : : 6 e e e r < > ; r 7 < > > r 0 x E _ - r , > > 7 e e e r > > < e r e e < > : r e 6 > O %.{ v e 7 e e e e e e e < : > r e 6 > > r e 7 e e ",
"> > , 6 < < 6 < < 6 6 6 < < 6 e e < < < < < , > > 6 = k U _ $ 6 , > > r 7 7 6 6 < < < < < < < , > > < 7 , & O &.X.l = 6 e 7 7 6 < e e < > > 6 6 , > > 6 6 6 6 6 ",
"> > > > > r r < : > r e < & & r r e e e > , > > > > % s U { O > > > > e r 6 + & r r < > > > > > > > > > & & O :.{ h + > r 7 6 > : r e < > > > > > > > > & > > > ",
"> > > > > r r < > > r e 6 > > r e e r r > > > > > O o s E ' X O % > & r r < > : r r < > & > > > > > > > % O   &.X.d o O r r 6 > > r 7 6 > > > > > > > > > > > > ",
"> > > > > > : > > > > & > > > > > % > > & & & > O :.' U F K ' $.j % > ; > > > > : > > > & & > > > > & % z >.:.T E [ &.<.O & > > > > & > > > > , & > > > > > > > ",
"% % % % % % % % % % % % + % % % % % % + % % % % o ' H F F F F E s O % % % + % % + % + % % % % % % % % O d X.Q Q ! ! _ &.o % % O % % % % % % % % % % % % % % % % ",
"l h h h h h h h h h h h h h h h h h h h h h h h s ' P P T T T E C h j d d j j j j h h j h h h l l h h h C } _ Q ! ! ! { s d h h h h h h h h h j h h h h l j h h ",
"X.X.[  .O.#.{  .X.X.{ X.} X.} X.#. .{ X.{ X._ Y K Q Q Q ! ! ! ! [ X.X.T E _ X.{ O.{ {  . . .X.} { } } X.[ ! ! ! Q Q _ Q U P _ O.X.{ X.{ #.X.X.} { X.X.{ O.{ ' o.",
"%.#.&.#.%.%.#.&.%.%.! _ Q Q _ Q _ [ @.@.*.*.} _ _ &.%.&.%.%.%.%.} ! [ S F K _ ! &.#.#.*.#.*.@.*.*.*.*.%.%.%.%.%.@.@.@.#._ _ Q _ _ Q _ Q _ Q %.&.#.&.&.&.&.&.#.-.",
"- - - - - - - - - # %.Q E _ Q Q X.g # - - - - - - - - - - - - * f K F Q ! ! ! #.# - - - - - - - - - - - - - - - - - - - - * k o._ S S G K T # - - - - - - - - - ",
"e e e e e e e e 7 - =.X.[ Q T } %.b 7 e e e 7 e e r e e e r 7 4 x _ T ! ! _ O.-.- e 7 e e e e 7 e e e e e e e e e e e e e e v #.X.S H K P O.- e e e e e e 7 e e ",
"e e e e e < < 7 e 0 v x Z _ } x n i e e e e e e e e e 7 6 6 7 7 i x k ' U Z x b e e e e e r e e e e e e , 6 6 7 r e e e r e i v g P P V f n 4 e < < < e e e r e ",
"e e e e e : > < e e < - x } &.* 0 0 e e e e e e e e e 6 > ; e e 7 - * Q U k - e e e e e e e e e e e e e 6 > & r 7 e e r e e 0 0 * Q P k - 0 e e 6 > : r e e e e ",
"e e e r r : : 6 r e e e v O.-.- r e e e r e e e r e e < : : r r e r - _ P x e e e r e e e e e e e e e r 6 > ; r e e e e e e e e - _ T x 0 e r r < > : r e e e e ",
"e 7 6 & : r r 6 > % & % s U ] O : > > > e e < : + r e e e r : > : > O ' U s % % : : < r e e e e e r & % 6 7 r & > < e r ; : < e - &.{ h + : : : < e r : : > > > ",
"e r 6 > : r e 6 > > % O s ' ] o ; : > : r r < > > r e e e r > > % % o ' U s O % > > < e e e r r e r > > 6 r r > > < r r > > , - * %.X.h O % > & < r r > > > > > ",
"6 6 , > > < < , > % l s b K U s j 8 % : < < < > > < < < < 6 > > 9 h s _ _ B j z : > < < < < < < 6 6 > > , , 6 > > , < < > ; i v f { [ C d z % > < < < > > > > , ",
"> > > > > > > > > O $.U P H H U P j % > > > > > > > > > > > > + h ] U _ P { ] ,.O > > > > > > > & > > > > > > > > > > > > % j O.K Q Q [ { >.O & > > > > > > > > ",
"> > > > > > > > > O ' U U K H H U j % > > > > > > > > > > > > % h U H Q T _ _ #.O > > > > > > > > > > > > > > > > > > > > % s P F _ Q ! ! :.O & > > > > > > > > "
};
